<?xml version="1.0" encoding="utf-8"?>
<!-- Generator: Adobe Illustrator 26.2.1, SVG Export Plug-In . SVG Version: 6.00 Build 0)  -->
<svg version="1.1" id="Layer_1" xmlns="http://www.w3.org/2000/svg" xmlns:xlink="http://www.w3.org/1999/xlink" x="0px" y="0px"
	 viewBox="0 0 200.33 37.69" style="enable-background:new 0 0 200.33 37.69;" xml:space="preserve">
<style type="text/css">
	.st0{fill:#1E1E1C;}
	.st1{fill:#147ABF;}
	.st2{fill:#FFFFFF;}
</style>
<g>
	<g>
		<path class="st0" d="M23.67,28.83c-1.09,1.51-2.52,2.71-4.3,3.59c-1.78,0.88-3.81,1.32-6.08,1.32c-2.56,0-4.84-0.54-6.81-1.61
			c-1.98-1.07-3.52-2.64-4.63-4.69c-1.11-2.05-1.67-4.51-1.67-7.36s0.56-5.31,1.67-7.36c1.11-2.05,2.66-3.61,4.63-4.69
			c1.98-1.07,4.25-1.61,6.81-1.61c2.15,0,4.09,0.4,5.81,1.19c1.72,0.79,3.13,1.85,4.23,3.17c1.1,1.32,1.84,2.76,2.23,4.32
			l-6.96,0.88c-0.37-1.22-1.01-2.2-1.92-2.95c-0.92-0.74-2.05-1.12-3.39-1.12c-1.71,0-3.14,0.66-4.29,1.98
			c-1.15,1.32-1.72,3.38-1.72,6.19c0,2.81,0.57,4.87,1.72,6.19c1.15,1.32,2.58,1.98,4.29,1.98c1.47,0,2.67-0.46,3.61-1.37
			c0.94-0.92,1.56-2.17,1.85-3.76l7.03,0.62C25.46,25.61,24.75,27.31,23.67,28.83z"/>
		<path class="st0" d="M45.04,15.93c1.83,1.81,2.75,4.31,2.75,7.51c0,3.18-0.92,5.67-2.75,7.47c-1.83,1.81-4.38,2.71-7.66,2.71
			c-3.3,0-5.87-0.9-7.71-2.71c-1.84-1.81-2.77-4.3-2.77-7.47c0-3.2,0.92-5.7,2.77-7.51c1.84-1.81,4.41-2.71,7.71-2.71
			C40.66,13.22,43.21,14.12,45.04,15.93z M41.16,23.44c0-3.69-1.26-5.53-3.77-5.53c-2.56,0-3.85,1.84-3.85,5.53
			c0,3.66,1.28,5.5,3.85,5.5C39.9,28.94,41.16,27.1,41.16,23.44z"/>
		<path class="st0" d="M63,16.04h0.15V6.62h6.52v26.53H63.4v-2.6h-0.15c-1.12,2.05-3.09,3.08-5.9,3.08c-1.59,0-3-0.41-4.25-1.23
			c-1.25-0.82-2.23-2-2.95-3.54c-0.72-1.54-1.08-3.35-1.08-5.42c0-2.08,0.35-3.88,1.06-5.42c0.71-1.54,1.68-2.72,2.91-3.55
			c1.23-0.83,2.61-1.25,4.12-1.25C59.83,13.22,61.77,14.16,63,16.04z M62.43,27.49c0.7-0.89,1.04-2.24,1.04-4.05
			c0-1.83-0.34-3.19-1.03-4.07c-0.68-0.88-1.64-1.32-2.86-1.32c-1.22,0-2.17,0.44-2.86,1.32c-0.68,0.88-1.03,2.23-1.03,4.07
			c0,1.83,0.34,3.19,1.03,4.07c0.68,0.88,1.64,1.32,2.86,1.32C60.78,28.83,61.73,28.38,62.43,27.49z"/>
		<path class="st0" d="M90.07,30.24c-0.78,0.97-1.88,1.77-3.3,2.42c-1.42,0.65-3.15,0.97-5.2,0.97c-3.25,0-5.79-0.9-7.62-2.71
			c-1.83-1.81-2.75-4.29-2.75-7.44c0-3.2,0.91-5.71,2.73-7.53c1.82-1.82,4.35-2.73,7.6-2.73c3.2,0,5.72,0.89,7.57,2.67
			c1.84,1.78,2.77,4.35,2.77,7.69l-0.04,1.14H77.91c0,1.44,0.34,2.58,1.01,3.43c0.67,0.84,1.56,1.26,2.66,1.26
			c1,0,1.77-0.24,2.31-0.73c0.54-0.49,0.89-1.09,1.06-1.8l6.67,0.4C91.36,28.29,90.85,29.27,90.07,30.24z M78.97,18.33
			c-0.64,0.67-0.98,1.56-1.03,2.66h7.22c-0.05-1.1-0.4-1.98-1.04-2.66c-0.65-0.67-1.51-1.01-2.58-1.01
			C80.46,17.32,79.6,17.66,78.97,18.33z"/>
		<path class="st0" d="M105.86,30.33c-0.46,1.03-1.26,1.83-2.4,2.42c-1.14,0.59-2.44,0.88-3.9,0.88c-1.12,0-2.19-0.23-3.19-0.7
			c-1-0.46-1.81-1.12-2.42-1.98c-0.61-0.85-0.92-1.87-0.92-3.04c0-1.98,0.65-3.46,1.94-4.43c1.29-0.98,3.26-1.64,5.9-1.98
			c1.34-0.2,2.37-0.38,3.08-0.57c0.71-0.18,1.2-0.39,1.48-0.62c0.28-0.23,0.42-0.54,0.42-0.93c0-0.61-0.24-1.08-0.71-1.41
			c-0.48-0.33-1.14-0.49-2-0.49c-0.78,0-1.47,0.22-2.05,0.66c-0.59,0.44-1,1.06-1.25,1.87l-6.05-0.62c0.41-1.93,1.47-3.44,3.15-4.52
			c1.69-1.09,3.79-1.63,6.3-1.63c3,0,5.28,0.58,6.81,1.74c1.54,1.16,2.31,2.8,2.31,4.93v9.64c0,1.05,0.03,1.84,0.09,2.36
			c0.06,0.53,0.2,0.95,0.42,1.26h-6.48C106.04,32.71,105.86,31.77,105.86,30.33z M104.54,24.45c-0.61,0.13-1.28,0.26-2.02,0.38
			c-1.9,0.37-2.86,1.22-2.86,2.56c0,0.66,0.21,1.18,0.64,1.56c0.43,0.38,0.99,0.57,1.7,0.57c0.59,0,1.17-0.13,1.76-0.4
			c0.59-0.27,1.08-0.69,1.48-1.26c0.4-0.57,0.6-1.3,0.6-2.18v-1.69C105.59,24.16,105.15,24.31,104.54,24.45z"/>
		<path class="st0" d="M120.88,6.62v26.53h-6.48V6.62H120.88z"/>
		<path class="st0" d="M140.63,15.93c1.83,1.81,2.75,4.31,2.75,7.51c0,3.18-0.92,5.67-2.75,7.47c-1.83,1.81-4.38,2.71-7.66,2.71
			c-3.3,0-5.87-0.9-7.71-2.71c-1.84-1.81-2.77-4.3-2.77-7.47c0-3.2,0.92-5.7,2.77-7.51c1.84-1.81,4.41-2.71,7.71-2.71
			C136.24,13.22,138.8,14.12,140.63,15.93z M136.74,23.44c0-3.69-1.26-5.53-3.77-5.53c-2.56,0-3.85,1.84-3.85,5.53
			c0,3.66,1.28,5.5,3.85,5.5C135.49,28.94,136.74,27.1,136.74,23.44z"/>
		<path class="st0" d="M156.9,28.35v4.8c-0.39,0.05-1.71,0.07-3.96,0.07c-1.59,0-2.83-0.14-3.72-0.42
			c-0.89-0.28-1.55-0.79-1.98-1.52c-0.43-0.73-0.64-1.81-0.64-3.22V17.76h-2.97v-4.07h2.97V8.35h6.48v5.35h3.88v4.07h-3.88v8.76
			c0,0.78,0.16,1.28,0.49,1.5c0.33,0.22,0.96,0.33,1.89,0.33H156.9z"/>
	</g>
	<path class="st1" d="M181.47,37.54L181.47,37.54c-10.32,0-18.69-8.37-18.69-18.69v0c0-10.32,8.37-18.69,18.69-18.69h0
		c10.32,0,18.69,8.37,18.69,18.69v0C200.16,29.17,191.8,37.54,181.47,37.54z"/>
	<g>
		<path class="st2" d="M176.41,14.66v2.63l-5.12,2.19v0.08l5.12,2.19v2.63l-8.19-3.71v-2.29L176.41,14.66z"/>
		<path class="st2" d="M180.49,25.65h-3.05l4.93-13.6h3.07L180.49,25.65z"/>
		<path class="st2" d="M186.53,24.37v-2.63l5.1-2.19v-0.08l-5.1-2.19v-2.63l8.19,3.71v2.29L186.53,24.37z"/>
	</g>
</g>
</svg>
