<svg xmlns="http://www.w3.org/2000/svg" xmlns:xlink="http://www.w3.org/1999/xlink" version="1.1" width="256" height="256" viewBox="0 0 256 256" xml:space="preserve">
<desc>Created with Fabric.js 1.7.22</desc>
<defs>
</defs>
<g transform="translate(128 128) scale(0.72 0.72)" style="">
	<g style="stroke: none; stroke-width: 0; stroke-dasharray: none; stroke-linecap: butt; stroke-linejoin: miter; stroke-miterlimit: 10; fill: none; fill-rule: nonzero; opacity: 1;" transform="translate(-175.05 -175.05000000000004) scale(3.89 3.89)" >
	<path d="M 46.96 0.794 l 11.837 11.837 c 1.059 1.059 1.059 2.776 0 3.835 L 41.345 33.918 h 45.942 c 1.497 0 2.711 1.215 2.711 2.712 v 16.74 c 0 1.498 -1.214 2.712 -2.712 2.712 H 41.345 l 17.452 17.452 c 1.059 1.059 1.059 2.776 0 3.835 L 46.96 89.206 c -1.059 1.059 -2.776 1.059 -3.835 0 L 13.078 59.159 c -0.159 -0.102 -0.31 -0.221 -0.449 -0.36 L 0.792 46.962 C 0.251 46.421 -0.009 45.709 0.002 45 c -0.012 -0.709 0.249 -1.421 0.79 -1.962 l 11.837 -11.837 c 0.139 -0.139 0.29 -0.257 0.449 -0.36 L 43.125 0.794 C 44.184 -0.265 45.901 -0.265 46.96 0.794 z" style="stroke: none; stroke-width: 1; stroke-dasharray: none; stroke-linecap: butt; stroke-linejoin: miter; stroke-miterlimit: 10; fill: rgb(78,78,78); fill-rule: nonzero; opacity: 1;" transform=" matrix(1 0 0 1 0 0) " stroke-linecap="round" />
</g>
</g>
</svg>