<svg xmlns="http://www.w3.org/2000/svg" xmlns:xlink="http://www.w3.org/1999/xlink" version="1.1" width="256" height="256" viewBox="0 0 256 256" xml:space="preserve">
<desc>Created with Fabric.js 1.7.22</desc>
<defs>
</defs>
<g transform="translate(128 128) scale(0.72 0.72)" style="">
	<g style="stroke: none; stroke-width: 0; stroke-dasharray: none; stroke-linecap: butt; stroke-linejoin: miter; stroke-miterlimit: 10; fill: none; fill-rule: nonzero; opacity: 1;" transform="translate(-175.05 -175.05000000000004) scale(3.89 3.89)" >
	<path d="M 61.036 53.675 c 0 -2.833 1.157 -5.573 3.26 -7.715 c 4.987 -5.083 7.733 -11.805 7.733 -18.927 c 0 -7.465 -3.131 -14.669 -8.591 -19.764 c -5.535 -5.167 -12.766 -7.73 -20.353 -7.2 c -13.277 0.916 -23.79 11.189 -25 24.427 c -0.712 7.799 1.954 15.508 7.316 21.151 c 2.296 2.415 3.56 5.503 3.56 8.695 c 0 1.284 0.402 2.474 1.083 3.457 c -1.235 1.051 -2.021 2.614 -2.021 4.359 c 0 1.424 0.526 2.726 1.389 3.729 c -0.863 1.003 -1.389 2.305 -1.389 3.729 c 0 2.474 1.579 4.58 3.779 5.38 c -0.252 0.645 -0.396 1.344 -0.396 2.078 c 0 2.77 1.975 5.086 4.591 5.615 C 36.871 86.858 40.574 90 44.999 90 s 8.128 -3.142 9.001 -7.311 c 2.616 -0.529 4.591 -2.846 4.591 -5.615 c 0 -0.733 -0.144 -1.433 -0.396 -2.078 c 2.201 -0.8 3.779 -2.907 3.779 -5.38 c 0 -1.424 -0.526 -2.726 -1.389 -3.729 c 0.863 -1.003 1.389 -2.305 1.389 -3.729 c 0 -1.742 -0.784 -3.302 -2.015 -4.353 c 0.697 -1.008 1.076 -2.2 1.076 -3.452 V 53.675 z M 28.301 42.892 c -4.568 -4.808 -6.84 -11.38 -6.232 -18.032 c 1.03 -11.273 9.984 -20.021 21.292 -20.801 c 0.554 -0.038 1.106 -0.057 1.655 -0.057 c 5.861 0 11.382 2.166 15.694 6.191 c 4.651 4.342 7.319 10.48 7.319 16.84 c 0 6.068 -2.34 11.795 -6.589 16.126 c -2.84 2.895 -4.404 6.629 -4.404 10.517 v 0.678 c 0 0.558 -0.217 1.082 -0.611 1.477 c -0.37 0.37 -0.855 0.576 -1.375 0.601 h -3.446 v -9.813 c 0 -4.621 1.902 -9.118 5.218 -12.336 c 0.793 -0.769 0.812 -2.035 0.043 -2.828 c -0.77 -0.792 -2.035 -0.811 -2.828 -0.042 c -4.088 3.967 -6.432 9.51 -6.432 15.206 v 9.813 h -5.211 v -9.813 c 0 -5.697 -2.345 -11.24 -6.433 -15.207 c -0.791 -0.769 -2.058 -0.75 -2.828 0.043 c -0.769 0.792 -0.75 2.059 0.043 2.828 c 3.316 3.218 5.218 7.714 5.218 12.336 v 9.813 h -1.537 l -1.809 -0.001 c -1.15 -0.001 -2.085 -0.937 -2.085 -2.087 C 32.962 50.12 31.306 46.054 28.301 42.892 z M 56.245 60.429 c 0.954 0 1.729 0.775 1.729 1.728 c 0 0.954 -0.775 1.729 -1.729 1.729 H 33.753 c -0.954 0 -1.729 -0.775 -1.729 -1.729 c 0 -0.953 0.776 -1.728 1.729 -1.728 h 3.101 l 18.091 0.01 c 0.002 0 0.004 0 0.006 0 c 0.067 0 0.133 -0.008 0.2 -0.01 H 56.245 z M 57.974 69.616 c 0 0.954 -0.775 1.729 -1.729 1.729 h -3.383 H 37.136 h -3.383 c -0.954 0 -1.729 -0.775 -1.729 -1.729 c 0 -0.953 0.776 -1.728 1.729 -1.728 h 22.492 C 57.199 67.887 57.974 68.663 57.974 69.616 z M 44.999 86 c -2.157 0 -4.009 -1.322 -4.795 -3.197 h 9.589 C 49.009 84.678 47.156 86 44.999 86 z M 52.862 78.803 H 37.136 c -0.954 0 -1.729 -0.775 -1.729 -1.729 c 0 -0.953 0.775 -1.728 1.729 -1.728 h 15.726 c 0.953 0 1.728 0.775 1.728 1.728 C 54.59 78.028 53.815 78.803 52.862 78.803 z" style="stroke: none; stroke-width: 1; stroke-dasharray: none; stroke-linecap: butt; stroke-linejoin: miter; stroke-miterlimit: 10; fill: rgb(135,135,135); fill-rule: nonzero; opacity: 1;" transform=" matrix(1 0 0 1 0 0) " stroke-linecap="round" />
</g>
</g>
</svg>