<svg xmlns="http://www.w3.org/2000/svg" xmlns:xlink="http://www.w3.org/1999/xlink" version="1.1" width="256" height="256" viewBox="0 0 256 256" xml:space="preserve">
<desc>Created with Fabric.js 1.7.22</desc>
<defs>
</defs>
<g transform="translate(128 128) scale(0.72 0.72)" style="">
	<g style="stroke: none; stroke-width: 0; stroke-dasharray: none; stroke-linecap: butt; stroke-linejoin: miter; stroke-miterlimit: 10; fill: none; fill-rule: nonzero; opacity: 1;" transform="translate(-175.05 -175.05000000000004) scale(3.89 3.89)" >
	<path d="M 86 49 H 4 c -2.209 0 -4 -1.791 -4 -4 s 1.791 -4 4 -4 h 82 c 2.209 0 4 1.791 4 4 S 88.209 49 86 49 z" style="stroke: none; stroke-width: 1; stroke-dasharray: none; stroke-linecap: butt; stroke-linejoin: miter; stroke-miterlimit: 10; fill: rgb(11,121,191); fill-rule: nonzero; opacity: 1;" transform=" matrix(1 0 0 1 0 0) " stroke-linecap="round" />
	<path d="M 73.007 61.993 c -1.023 0 -2.048 -0.391 -2.828 -1.172 c -1.563 -1.562 -1.563 -4.095 0 -5.656 L 80.343 45 L 70.179 34.836 c -1.563 -1.562 -1.563 -4.095 0 -5.657 c 1.561 -1.562 4.094 -1.562 5.656 0 l 12.993 12.993 C 89.578 42.922 90 43.939 90 45 c 0 1.061 -0.422 2.078 -1.172 2.828 L 75.835 60.821 C 75.055 61.603 74.03 61.993 73.007 61.993 z" style="stroke: none; stroke-width: 1; stroke-dasharray: none; stroke-linecap: butt; stroke-linejoin: miter; stroke-miterlimit: 10; fill: rgb(11,121,191); fill-rule: nonzero; opacity: 1;" transform=" matrix(1 0 0 1 0 0) " stroke-linecap="round" />
</g>
</g>
</svg>