<svg xmlns="http://www.w3.org/2000/svg" xmlns:xlink="http://www.w3.org/1999/xlink" version="1.1" width="256" height="256" viewBox="0 0 256 256" xml:space="preserve">
<desc>Created with Fabric.js 1.7.22</desc>
<defs>
</defs>
<g transform="translate(128 128) scale(0.72 0.72)" style="">
	<g style="stroke: none; stroke-width: 0; stroke-dasharray: none; stroke-linecap: butt; stroke-linejoin: miter; stroke-miterlimit: 10; fill: none; fill-rule: nonzero; opacity: 1;" transform="translate(-175.05 -175.05000000000004) scale(3.89 3.89)" >
	<path d="M 86.5 12.01 h -83 c -1.933 0 -3.5 1.567 -3.5 3.5 v 58.98 c 0 1.933 1.567 3.5 3.5 3.5 h 83 c 1.933 0 3.5 -1.567 3.5 -3.5 V 15.51 C 90 13.577 88.433 12.01 86.5 12.01 z M 7 70.99 V 19.01 h 76 v 34.984 H 22.782 c -1.933 0 -3.5 1.567 -3.5 3.5 s 1.567 3.5 3.5 3.5 H 83 v 9.996 H 7 z" style="stroke: none; stroke-width: 1; stroke-dasharray: none; stroke-linecap: butt; stroke-linejoin: miter; stroke-miterlimit: 10; fill: rgb(85,85,85); fill-rule: nonzero; opacity: 1;" transform=" matrix(1 0 0 1 0 0) " stroke-linecap="round" />
	<path d="M 41.225 24.908 c -2.916 0 -5.485 1.48 -7 3.729 c -1.515 -2.249 -4.084 -3.729 -7 -3.729 c -4.658 0 -8.434 3.776 -8.434 8.434 s 3.776 8.434 8.434 8.434 c 2.916 0 5.485 -1.48 7 -3.729 c 1.515 2.249 4.084 3.729 7 3.729 c 4.658 0 8.434 -3.776 8.434 -8.434 S 45.883 24.908 41.225 24.908 z" style="stroke: none; stroke-width: 1; stroke-dasharray: none; stroke-linecap: butt; stroke-linejoin: miter; stroke-miterlimit: 10; fill: rgb(85,85,85); fill-rule: nonzero; opacity: 1;" transform=" matrix(1 0 0 1 0 0) " stroke-linecap="round" />
</g>
</g>
</svg>