<?xml version="1.0" encoding="utf-8"?>
<!-- Generator: Adobe Illustrator 16.0.0, SVG Export Plug-In . SVG Version: 6.00 Build 0)  -->
<!DOCTYPE svg PUBLIC "-//W3C//DTD SVG 1.1//EN" "http://www.w3.org/Graphics/SVG/1.1/DTD/svg11.dtd">
<svg version="1.1" id="Layer_1" xmlns="http://www.w3.org/2000/svg" xmlns:xlink="http://www.w3.org/1999/xlink" x="0px" y="0px"
	 width="260px" height="59.856px" viewBox="0 100.072 260 59.856" enable-background="new 0 100.072 260 59.856"
	 xml:space="preserve">
<g id="Layer_1_1_" display="none">
	
		<image display="inline" overflow="visible" enable-background="new    " width="1367" height="769" xlink:href="CC5C034F.jpg"  transform="matrix(1.8678 0 0 1.8656 -283.2271 -259.4766)">
	</image>
</g>
<g id="Layer_2">
	<g>
		<path fill="#F89821" d="M59.538,154.784c0.187-0.636,0.318-1.29,0.318-1.983V107.18c0-3.928-3.18-7.108-7.108-7.108H7.108
			c-0.673,0-1.328,0.131-1.964,0.318L59.538,154.784z"/>
		<path fill="#F89821" d="M0.318,105.216C0.131,105.852,0,106.488,0,107.18v45.641c0,3.928,3.18,7.107,7.108,7.107h45.64
			c0.692,0,1.347-0.131,1.983-0.318L0.318,105.216z"/>
	</g>
	<g>
		<path d="M75.905,130.691V101.25H97.21v3.479H79.814v9.016h16.292v3.46H79.814v10.026h18.088v3.479H75.905V130.691z"/>
		<path d="M102.447,130.691V101.25h3.891v25.981h14.515v3.479h-18.406V130.691z"/>
		<path d="M124.931,130.691V101.25h21.305v3.479H128.84v9.016h16.292v3.46H128.84v10.026h18.087v3.479h-21.997V130.691z"/>
		<path d="M165.408,119.151v-3.46l12.477-0.019v10.924c-1.908,1.534-3.891,2.675-5.93,3.442s-4.133,1.16-6.266,1.16
			c-2.899,0-5.518-0.617-7.894-1.852c-2.356-1.234-4.153-3.03-5.35-5.368c-1.197-2.338-1.814-4.957-1.814-7.856
			c0-2.862,0.599-5.537,1.796-8.024c1.197-2.488,2.918-4.321,5.181-5.537c2.264-1.216,4.845-1.814,7.782-1.814
			c2.132,0,4.059,0.337,5.779,1.029c1.721,0.692,3.067,1.646,4.04,2.881c0.973,1.234,1.722,2.843,2.226,4.826l-3.516,0.973
			c-0.449-1.496-0.992-2.675-1.646-3.535s-1.59-1.553-2.806-2.058c-1.216-0.523-2.581-0.767-4.06-0.767
			c-1.776,0-3.329,0.28-4.619,0.823c-1.291,0.542-2.339,1.253-3.143,2.132c-0.805,0.879-1.422,1.852-1.852,2.918
			c-0.749,1.814-1.123,3.797-1.123,5.93c0,2.619,0.449,4.826,1.365,6.584c0.898,1.777,2.227,3.086,3.947,3.947
			s3.572,1.291,5.499,1.291c1.684,0,3.329-0.318,4.938-0.973c1.608-0.654,2.824-1.347,3.666-2.076v-5.518H165.408z"/>
		<path d="M179.736,130.691l11.316-29.46h4.209l12.064,29.46h-4.433l-3.442-8.921h-12.307l-3.236,8.921H179.736z M188.248,118.608
			h9.988l-3.068-8.155c-0.936-2.469-1.627-4.508-2.095-6.116c-0.374,1.889-0.897,3.76-1.59,5.63L188.248,118.608z"/>
		<path d="M209.74,130.691V101.25h4.002l15.469,23.119V101.25h3.742v29.46h-4.004l-15.487-23.157v23.157h-3.722V130.691z"/>
		<path d="M246.326,130.691v-25.98h-9.707v-3.46h23.344v3.479h-9.746v25.981h-3.891V130.691z"/>
	</g>
	<g>
		<path d="M75.755,154.784v-7.575h-1.31v-1.16h1.31v-0.936c0-0.58,0.056-1.028,0.15-1.309c0.149-0.393,0.393-0.692,0.748-0.936
			s0.86-0.355,1.515-0.355c0.412,0,0.879,0.057,1.384,0.149l-0.225,1.291c-0.299-0.056-0.599-0.075-0.86-0.075
			c-0.449,0-0.767,0.094-0.954,0.281c-0.187,0.187-0.281,0.542-0.281,1.084v0.805h1.702v1.16h-1.702v7.575H75.755z"/>
		<path d="M85.856,153.718c-0.542,0.468-1.085,0.786-1.59,0.991c-0.505,0.188-1.047,0.281-1.627,0.281
			c-0.954,0-1.702-0.244-2.207-0.711c-0.524-0.468-0.767-1.066-0.767-1.796c0-0.431,0.094-0.823,0.299-1.179
			c0.187-0.355,0.449-0.636,0.767-0.859c0.318-0.207,0.673-0.375,1.066-0.486c0.299-0.076,0.729-0.15,1.309-0.225
			c1.197-0.15,2.076-0.318,2.637-0.506c0-0.205,0-0.336,0-0.393c0-0.599-0.149-1.029-0.411-1.271
			c-0.374-0.337-0.936-0.506-1.684-0.506c-0.692,0-1.216,0.131-1.534,0.375c-0.337,0.242-0.58,0.673-0.729,1.29l-1.44-0.206
			c0.131-0.617,0.355-1.122,0.655-1.496s0.729-0.674,1.309-0.879c0.562-0.206,1.235-0.318,1.983-0.318s1.347,0.094,1.814,0.262
			c0.468,0.169,0.804,0.393,1.029,0.655c0.224,0.262,0.374,0.599,0.468,1.01c0.056,0.243,0.075,0.711,0.075,1.366v1.963
			c0,1.385,0.037,2.245,0.093,2.601c0.056,0.374,0.187,0.711,0.374,1.048h-1.552C86.006,154.484,85.912,154.129,85.856,153.718z
			 M85.744,150.407c-0.542,0.225-1.347,0.411-2.413,0.562c-0.617,0.094-1.048,0.187-1.291,0.299
			c-0.243,0.112-0.449,0.262-0.58,0.486c-0.131,0.206-0.206,0.449-0.206,0.711c0,0.393,0.149,0.729,0.449,0.991
			s0.729,0.394,1.31,0.394c0.561,0,1.084-0.132,1.515-0.375c0.449-0.243,0.767-0.598,0.973-1.028
			c0.15-0.337,0.243-0.823,0.243-1.478V150.407z"/>
		<path d="M89.017,152.184l1.459-0.224c0.075,0.579,0.318,1.028,0.692,1.347s0.898,0.467,1.571,0.467s1.178-0.131,1.515-0.41
			c0.336-0.281,0.486-0.6,0.486-0.973c0-0.338-0.15-0.6-0.431-0.786c-0.206-0.131-0.71-0.3-1.515-0.505
			c-1.085-0.281-1.833-0.506-2.264-0.711c-0.411-0.206-0.729-0.468-0.954-0.823c-0.225-0.355-0.318-0.748-0.318-1.179
			c0-0.393,0.094-0.748,0.262-1.084c0.168-0.338,0.411-0.6,0.729-0.824c0.224-0.168,0.542-0.317,0.935-0.43
			c0.393-0.112,0.823-0.168,1.272-0.168c0.692,0,1.291,0.094,1.796,0.299c0.523,0.206,0.897,0.468,1.141,0.805
			c0.243,0.336,0.412,0.785,0.505,1.347l-1.44,0.206c-0.075-0.449-0.262-0.805-0.561-1.048c-0.318-0.243-0.767-0.374-1.328-0.374
			c-0.673,0-1.16,0.112-1.459,0.336c-0.299,0.225-0.43,0.486-0.43,0.786c0,0.187,0.056,0.355,0.187,0.524
			c0.112,0.148,0.318,0.299,0.561,0.393c0.15,0.056,0.58,0.187,1.31,0.374c1.047,0.28,1.777,0.505,2.188,0.692
			c0.411,0.187,0.729,0.43,0.973,0.785s0.355,0.767,0.355,1.271c0,0.486-0.15,0.954-0.431,1.403c-0.28,0.431-0.71,0.767-1.253,1.01
			s-1.16,0.355-1.833,0.355c-1.141,0-2.001-0.243-2.6-0.71C89.56,153.812,89.186,153.101,89.017,152.184z"/>
		<path d="M98.108,154.784v-12.046h1.478v4.32c0.692-0.804,1.553-1.197,2.619-1.197c0.655,0,1.216,0.131,1.684,0.375
			c0.468,0.262,0.823,0.617,1.029,1.066c0.206,0.448,0.318,1.104,0.318,1.963v5.537h-1.478v-5.537c0-0.748-0.168-1.271-0.486-1.607
			c-0.318-0.338-0.767-0.506-1.365-0.506c-0.431,0-0.861,0.112-1.235,0.337c-0.393,0.225-0.655,0.542-0.823,0.935
			c-0.168,0.394-0.243,0.936-0.243,1.609v4.77h-1.497V154.784z"/>
		<path d="M107.573,144.44v-1.702h1.478v1.702H107.573z M107.573,154.784v-8.735h1.478v8.735H107.573z"/>
		<path d="M110.827,150.426c0-1.608,0.449-2.806,1.347-3.592c0.748-0.654,1.665-0.973,2.75-0.973c1.197,0,2.188,0.394,2.937,1.18
			c0.767,0.785,1.141,1.869,1.141,3.254c0,1.123-0.168,2.002-0.505,2.656c-0.337,0.636-0.823,1.141-1.478,1.496
			c-0.636,0.355-1.347,0.543-2.113,0.543c-1.216,0-2.208-0.393-2.956-1.179S110.827,151.904,110.827,150.426z M112.342,150.426
			c0,1.123,0.243,1.945,0.729,2.507s1.104,0.841,1.833,0.841s1.347-0.279,1.833-0.841s0.729-1.403,0.729-2.563
			c0-1.084-0.243-1.889-0.729-2.449c-0.486-0.562-1.104-0.842-1.833-0.842c-0.749,0-1.347,0.28-1.833,0.822
			C112.585,148.443,112.342,149.304,112.342,150.426z"/>
		<path d="M120.834,154.784v-8.735h1.328v1.234c0.636-0.953,1.571-1.439,2.787-1.439c0.523,0,1.01,0.093,1.459,0.279
			c0.449,0.188,0.767,0.431,0.991,0.749c0.225,0.317,0.374,0.673,0.468,1.085c0.056,0.28,0.075,0.748,0.075,1.439v5.369h-1.497
			v-5.313c0-0.599-0.056-1.047-0.168-1.347s-0.318-0.542-0.617-0.711c-0.299-0.168-0.636-0.262-1.029-0.262
			c-0.636,0-1.179,0.206-1.627,0.599c-0.449,0.393-0.692,1.16-0.692,2.282v4.77H120.834z"/>
		<path d="M135.462,154.784v-1.684h1.684v1.684H135.462z"/>
		<path d="M144.533,154.784v-12.046h1.479v12.046H144.533z"/>
		<path d="M148.387,144.44v-1.702h1.479v1.702H148.387z M148.387,154.784v-8.735h1.479v8.735H148.387z"/>
		<path d="M152.559,154.784v-7.575h-1.31v-1.16h1.31v-0.936c0-0.58,0.056-1.028,0.149-1.309c0.149-0.393,0.393-0.692,0.748-0.936
			s0.86-0.355,1.515-0.355c0.412,0,0.88,0.057,1.385,0.149l-0.225,1.291c-0.299-0.056-0.599-0.075-0.86-0.075
			c-0.448,0-0.767,0.094-0.954,0.281c-0.188,0.187-0.28,0.542-0.28,1.084v0.805h1.702v1.16h-1.702v7.575H152.559z"/>
		<path d="M162.939,151.979l1.533,0.188c-0.242,0.897-0.691,1.59-1.346,2.076s-1.479,0.748-2.507,0.748
			c-1.272,0-2.282-0.393-3.03-1.179s-1.122-1.89-1.122-3.311c0-1.478,0.374-2.601,1.141-3.423c0.767-0.823,1.739-1.217,2.937-1.217
			c1.16,0,2.114,0.394,2.862,1.197c0.729,0.786,1.104,1.908,1.104,3.349c0,0.094,0,0.225,0,0.393h-6.509
			c0.056,0.954,0.317,1.702,0.822,2.208c0.506,0.504,1.104,0.766,1.834,0.766c0.542,0,1.01-0.148,1.383-0.43
			C162.416,153.063,162.715,152.596,162.939,151.979z M158.095,149.584h4.882c-0.074-0.729-0.242-1.291-0.561-1.646
			c-0.468-0.561-1.085-0.859-1.834-0.859c-0.673,0-1.252,0.225-1.721,0.691C158.395,148.219,158.133,148.817,158.095,149.584z"/>
		<path d="M165.82,152.184l1.459-0.224c0.074,0.579,0.318,1.028,0.691,1.347c0.375,0.318,0.898,0.467,1.572,0.467
			c0.673,0,1.178-0.131,1.515-0.41c0.337-0.281,0.486-0.6,0.486-0.973c0-0.338-0.149-0.6-0.431-0.786
			c-0.205-0.131-0.711-0.3-1.515-0.505c-1.085-0.281-1.833-0.506-2.263-0.711c-0.412-0.206-0.73-0.468-0.955-0.823
			s-0.317-0.748-0.317-1.179c0-0.393,0.093-0.748,0.262-1.084c0.169-0.338,0.411-0.6,0.729-0.824
			c0.225-0.168,0.543-0.317,0.936-0.43s0.822-0.168,1.271-0.168c0.692,0,1.291,0.094,1.796,0.299
			c0.523,0.206,0.897,0.468,1.142,0.805c0.242,0.336,0.41,0.785,0.504,1.347l-1.439,0.206c-0.075-0.449-0.262-0.805-0.562-1.048
			c-0.317-0.243-0.767-0.374-1.328-0.374c-0.673,0-1.159,0.112-1.459,0.336c-0.3,0.225-0.431,0.486-0.431,0.786
			c0,0.187,0.057,0.355,0.188,0.524c0.112,0.148,0.318,0.299,0.561,0.393c0.15,0.056,0.58,0.187,1.311,0.374
			c1.047,0.28,1.776,0.505,2.188,0.692c0.412,0.187,0.73,0.43,0.973,0.785c0.244,0.355,0.355,0.767,0.355,1.271
			c0,0.486-0.149,0.954-0.43,1.403c-0.281,0.431-0.711,0.767-1.254,1.01c-0.542,0.243-1.159,0.355-1.832,0.355
			c-1.142,0-2.002-0.243-2.601-0.71C166.363,153.812,165.988,153.101,165.82,152.184z"/>
		<path d="M178.146,153.456l0.206,1.31c-0.411,0.094-0.786,0.131-1.122,0.131c-0.543,0-0.954-0.074-1.254-0.262
			c-0.299-0.188-0.504-0.393-0.617-0.674c-0.111-0.28-0.187-0.86-0.187-1.739v-5.013h-1.085v-1.16h1.085v-2.17L176.65,143v3.049
			h1.478v1.16h-1.478v5.105c0,0.431,0.019,0.693,0.074,0.805c0.057,0.112,0.131,0.225,0.262,0.281
			c0.113,0.074,0.281,0.111,0.506,0.111C177.66,153.512,177.885,153.494,178.146,153.456z"/>
		<path d="M179.605,158.15l-0.168-1.383c0.318,0.093,0.599,0.131,0.842,0.131c0.336,0,0.599-0.057,0.785-0.169
			c0.188-0.112,0.355-0.262,0.486-0.468c0.094-0.149,0.244-0.523,0.449-1.104c0.019-0.074,0.074-0.205,0.131-0.355l-3.311-8.754
			h1.59l1.814,5.051c0.243,0.636,0.449,1.309,0.636,2.02c0.169-0.673,0.374-1.347,0.617-1.982l1.87-5.088h1.479l-3.33,8.885
			c-0.355,0.954-0.636,1.627-0.822,1.982c-0.262,0.486-0.562,0.842-0.898,1.066c-0.336,0.225-0.748,0.337-1.216,0.337
			C180.279,158.338,179.961,158.264,179.605,158.15z"/>
		<path d="M188.154,154.784v-12.046h1.478v12.046H188.154z"/>
		<path d="M197.975,151.979l1.533,0.188c-0.243,0.897-0.691,1.59-1.347,2.076s-1.478,0.748-2.507,0.748
			c-1.271,0-2.281-0.393-3.029-1.179s-1.123-1.89-1.123-3.311c0-1.478,0.375-2.601,1.141-3.423c0.768-0.823,1.74-1.217,2.938-1.217
			c1.16,0,2.113,0.394,2.861,1.197c0.73,0.786,1.104,1.908,1.104,3.349c0,0.094,0,0.225,0,0.393h-6.509
			c0.056,0.954,0.317,1.702,0.823,2.208c0.505,0.504,1.104,0.766,1.832,0.766c0.543,0,1.011-0.148,1.385-0.43
			C197.45,153.063,197.75,152.596,197.975,151.979z M193.129,149.584h4.883c-0.075-0.729-0.243-1.291-0.562-1.646
			c-0.468-0.561-1.085-0.859-1.833-0.859c-0.674,0-1.253,0.225-1.721,0.691C193.429,148.219,193.167,148.817,193.129,149.584z"/>
		<path d="M206.635,154.784v-1.684h1.684v1.684H206.635z"/>
		<path d="M215.183,150.426c0-1.608,0.449-2.806,1.347-3.592c0.748-0.654,1.665-0.973,2.75-0.973c1.197,0,2.188,0.394,2.937,1.18
			c0.767,0.785,1.142,1.869,1.142,3.254c0,1.123-0.169,2.002-0.506,2.656c-0.336,0.636-0.822,1.141-1.478,1.496
			c-0.636,0.355-1.347,0.543-2.114,0.543c-1.215,0-2.207-0.393-2.955-1.179S215.183,151.904,215.183,150.426z M216.697,150.426
			c0,1.123,0.244,1.945,0.73,2.507s1.104,0.841,1.832,0.841c0.73,0,1.348-0.279,1.834-0.841s0.729-1.403,0.729-2.563
			c0-1.084-0.243-1.889-0.729-2.449c-0.486-0.562-1.104-0.842-1.834-0.842c-0.748,0-1.346,0.28-1.832,0.822
			C216.941,148.443,216.697,149.304,216.697,150.426z"/>
		<path d="M225.189,154.784v-8.735h1.328v1.234c0.637-0.953,1.572-1.439,2.787-1.439c0.523,0,1.01,0.093,1.459,0.279
			c0.449,0.188,0.768,0.431,0.992,0.749c0.225,0.317,0.373,0.673,0.467,1.085c0.057,0.28,0.075,0.748,0.075,1.439v5.369h-1.478
			v-5.313c0-0.599-0.057-1.047-0.168-1.347c-0.113-0.3-0.318-0.542-0.617-0.711c-0.3-0.168-0.637-0.262-1.029-0.262
			c-0.637,0-1.179,0.206-1.627,0.599c-0.449,0.393-0.692,1.16-0.692,2.282v4.77H225.189z"/>
		<path d="M234.599,154.784v-12.046h1.478v12.046H234.599z"/>
		<path d="M238.471,144.44v-1.702h1.478v1.702H238.471z M238.471,154.784v-8.735h1.478v8.735H238.471z"/>
		<path d="M242.286,154.784v-8.735h1.328v1.234c0.636-0.953,1.571-1.439,2.787-1.439c0.524,0,1.011,0.093,1.459,0.279
			c0.449,0.188,0.767,0.431,0.991,0.749c0.225,0.317,0.375,0.673,0.468,1.085c0.056,0.28,0.075,0.748,0.075,1.439v5.369h-1.479
			v-5.313c0-0.599-0.056-1.047-0.168-1.347s-0.318-0.542-0.617-0.711c-0.299-0.168-0.636-0.262-1.029-0.262
			c-0.635,0-1.178,0.206-1.627,0.599s-0.691,1.16-0.691,2.282v4.77H242.286z"/>
		<path d="M257.699,151.979l1.533,0.188c-0.242,0.897-0.691,1.59-1.346,2.076c-0.655,0.486-1.479,0.748-2.507,0.748
			c-1.272,0-2.282-0.393-3.03-1.179s-1.122-1.89-1.122-3.311c0-1.478,0.374-2.601,1.141-3.423c0.767-0.823,1.739-1.217,2.937-1.217
			c1.16,0,2.114,0.394,2.862,1.197c0.729,0.786,1.104,1.908,1.104,3.349c0,0.094,0,0.225,0,0.393h-6.509
			c0.056,0.954,0.317,1.702,0.822,2.208c0.506,0.504,1.104,0.766,1.834,0.766c0.542,0,1.01-0.148,1.383-0.43
			C257.176,153.063,257.475,152.596,257.699,151.979z M252.836,149.584h4.882c-0.075-0.729-0.243-1.291-0.562-1.646
			c-0.467-0.561-1.084-0.859-1.832-0.859c-0.674,0-1.254,0.225-1.721,0.691C253.154,148.219,252.893,148.817,252.836,149.584z"/>
	</g>
	<rect x="74.296" y="136.304" width="185.704" height="3.647"/>
</g>
</svg>
