<?xml version="1.0" encoding="utf-8"?>
<!-- Generator: Adobe Illustrator 16.0.0, SVG Export Plug-In . SVG Version: 6.00 Build 0)  -->
<!DOCTYPE svg PUBLIC "-//W3C//DTD SVG 1.1//EN" "http://www.w3.org/Graphics/SVG/1.1/DTD/svg11.dtd">
<svg version="1.1" id="Layer_1" xmlns="http://www.w3.org/2000/svg" xmlns:xlink="http://www.w3.org/1999/xlink" x="0px" y="0px"
	 width="540px" height="167.5px" viewBox="336.5 0 540 167.5" enable-background="new 336.5 0 540 167.5" xml:space="preserve">
<title>Top Header Title</title>
<g>
	<path d="M366.39,105.603c1.081-0.392,2.053-0.689,3.039-0.972c9.776-3.445,19.893-5.84,30.176-7.145
		c7.777-1.192,15.633-1.811,23.501-1.849c2.951,0.099,5.893,0.392,8.805,0.878c1.973,0.427,3.835,1.259,5.468,2.443
		c0.941,0.635,1.724,1.476,2.288,2.46c0.22,0.355,0.354,0.759,0.392,1.175c0.028,0.262-0.086,0.519-0.298,0.674
		c-0.242,0.169-0.573,0.129-0.768-0.094l-0.298-0.298c-1.193-1.566-3.016-2.528-4.982-2.632c-3.324-0.546-6.707-0.646-10.059-0.298
		c-4.7,0.298-9.479,0.783-14.179,1.473c-8.872,1.187-17.63,3.115-26.18,5.766c-4.889,1.457-9.776,3.134-14.649,5.076
		c-1.175,0.392-2.443,0.783-3.713,1.175c-1.241,0.392-2.586,0.279-3.744-0.313c-1.63-0.604-3.032-1.698-4.011-3.134
		c-0.449-0.679-0.58-1.52-0.36-2.303c0.391-1.524,0.947-3.001,1.66-4.403c4.277-8.82,8.79-17.531,13.771-25.913
		c2.053-3.619,4.105-7.238,6.063-10.748c0.194-0.273,0.357-0.567,0.485-0.877c0.204-0.392,0.095-0.689-0.392-0.783h-1.942
		c-5.271,0.214-10.544-0.313-15.667-1.567c-4.429-0.923-8.641-2.684-12.409-5.186c-3.979-2.578-6.596-6.804-7.128-11.516
		c-0.095-2.678,0.369-5.346,1.362-7.834c1.613-4.204,4.071-8.032,7.223-11.249c7.306-7.849,16.213-14.035,26.118-18.143
		c4.383-1.965,8.97-3.441,13.677-4.402c2.962-0.599,6.007-0.667,8.993-0.203c2.7,0.53,5.162,1.901,7.035,3.916
		c3.567,3.902,4.896,9.355,3.525,14.461c-1.24,5.104-3.043,10.054-5.374,14.759c-3.714,8.006-7.928,15.667-12.221,23.345
		c-7.834,14.366-16.31,28.529-24.724,42.599C366.688,104.427,366.202,104.819,366.39,105.603z M375.477,61.437h4.402
		c0.922,0.115,1.804-0.406,2.146-1.27c1.661-2.93,3.416-5.859,5.076-8.695c4.497-7.614,8.899-15.338,12.612-23.344
		c1.338-2.72,2.479-5.531,3.416-8.413c0.682-2.242,0.979-4.584,0.877-6.926c-0.094-1.473-0.392-1.77-1.755-2.256
		c-0.794-0.25-1.614-0.413-2.443-0.485c-2.957-0.36-5.955-0.19-8.853,0.501c-10.118,2.078-19.655,6.357-27.935,12.534
		c-5.761,3.941-10.576,9.109-14.101,15.135c-1.996,3.304-3.013,7.107-2.93,10.967c-0.066,2.949,1.584,5.668,4.229,6.972
		c2.186,1.14,4.479,2.059,6.847,2.742C363.053,60.611,369.251,61.466,375.477,61.437z M412.311,71.009
		c-1.19,0.079-2.385-0.086-3.51-0.485c-0.783-0.188-1.284-0.094-1.473,0.689c-0.84,2.674-1.038,5.508-0.579,8.272
		c0.098,0.505,0.261,0.994,0.485,1.457c0.567,1.635,2.353,2.5,3.987,1.933c0.034-0.012,0.068-0.024,0.102-0.037
		c2.786-0.873,5.426-2.156,7.834-3.808c5.164-3.603,9.942-7.729,14.257-12.314c0.461-0.549,1.025-1.002,1.661-1.331
		c0.395-0.278,0.921-0.278,1.316,0c0.351,0.364,0.432,0.911,0.203,1.362c-0.279,0.627-0.626,1.22-1.034,1.771
		c-4.255,5.216-9.298,9.734-14.946,13.396c-2.977,2.067-6.446,3.311-10.059,3.604c-2.041,0.217-4.102-0.119-5.969-0.971
		c-1.904-0.919-3.348-2.578-3.995-4.591c-1.109-2.969-1.349-6.191-0.689-9.291c1.232-7.414,6.175-13.681,13.098-16.607
		c2.484-1.311,5.342-1.736,8.1-1.206c1.592,0.434,3.086,1.168,4.402,2.162c1.437,0.956,2.104,2.72,1.661,4.387
		c-0.225,1.13-0.621,2.218-1.175,3.228c-2.632,4.011-5.859,7.129-10.654,8.116C414.344,70.971,413.326,71.061,412.311,71.009z
		 M422.572,57.724c0.095-1.363-0.203-1.661-1.473-1.363c-1.337,0.235-2.624,0.696-3.807,1.363c-2.457,1.581-4.634,3.562-6.439,5.859
		c-0.596,0.877-1.175,1.864-1.771,2.836c-0.188,0.297-0.392,0.595-0.094,0.986s0.579,0.188,0.972,0.188
		c1.513-0.193,2.994-0.589,4.402-1.175c2.626-1.304,4.956-3.133,6.847-5.374C421.979,60.094,422.452,58.939,422.572,57.724z
		 M446.073,57.237c1.363-0.971,2.538-1.755,3.714-2.538c1.556-1.116,3.543-1.44,5.373-0.877c3.5,0.881,5.661,4.39,4.873,7.912
		c-0.481,2.532-1.787,4.835-3.713,6.549c-2.429,2.334-5.076,1.849-7.614,0.485c-0.502-0.206-0.79-0.736-0.689-1.269
		c0.103-0.555,0.614-0.937,1.175-0.878c1.081,0.094,1.66-0.689,2.35-1.379c1.848-1.918,3.015-4.389,3.322-7.034
		c0.188-1.942-0.204-2.146-1.865-1.363c-2.065,0.982-3.968,2.277-5.64,3.839c-3.396,2.976-6.074,6.683-7.834,10.842
		c-1.675,3.795-3.553,7.498-5.624,11.092c-1.176,2.257-4.497,2.444-6.439,1.379c-0.557-0.257-0.817-0.901-0.596-1.473
		c0.204-0.674,0.392-1.269,0.596-1.958c3.415-8.304,7.223-16.31,11.421-24.222c0.436-0.848,0.928-1.664,1.474-2.444
		c0.598-0.77,1.593-1.113,2.538-0.877c0.146,0.085,0.317,0.118,0.485,0.094c2.412,0.705,2.93,1.3,2.741,4.12H446.073z
		 M508.993,55.389c-0.56,0.381-1.029,0.878-1.379,1.457c-6.667,8.424-13.758,16.503-21.244,24.206
		c-1.228,1.325-2.605,2.503-4.105,3.51c-2.011,1.276-4.558,1.354-6.643,0.203c-0.823-0.451-1.416-1.231-1.63-2.146
		c-0.154-1.069-0.254-2.146-0.297-3.228c-0.784,0.204-0.972,0.689-1.363,1.176c-0.975,1.201-2.055,2.313-3.228,3.321
		c-1.716,1.759-4.392,2.162-6.549,0.987c-2.171-0.906-3.59-3.022-3.604-5.374c-0.194-3,0.271-6.005,1.363-8.806
		c1.335-3.646,3.035-7.146,5.076-10.449c1.402-2.323,3.295-4.313,5.546-5.829c3.335-2.268,7.775-2.023,10.842,0.596
		c0.2,0.247,0.426,0.474,0.674,0.674c0.298,0.298,0.595,0.203,0.893-0.094c0.298-0.298,0.768-1.081,1.159-1.567
		c0.564-0.639,1.479-0.836,2.257-0.485c0.629,0.282,1.219,0.646,1.754,1.081c0.874,0.655,1.162,1.836,0.689,2.82
		c-1.175,2.444-2.146,4.888-3.227,7.332c-2.263,4.8-4.063,9.805-5.374,14.946c-0.095,0.486-0.392,0.987-0.095,1.567
		c1.028-0.679,1.979-1.467,2.836-2.351c4.008-4.122,7.789-8.457,11.328-12.988c5.473-6.831,11.139-13.505,16.998-20.022
		c1.363-1.566,2.742-3.228,4.105-4.794c-0.392-0.486-0.783-0.188-1.081-0.188c-5.766,0.674-11.531,1.27-17.234,1.457
		c-4.176,0.217-8.361,0.186-12.533-0.094c-2.598-0.087-5.153-0.684-7.521-1.755c-1.285-0.466-2.451-1.21-3.416-2.178
		c-0.299-0.325-0.563-0.683-0.783-1.065c-0.188-0.392-0.485-0.877-0.094-1.175s0.783,0,1.065,0.203
		c3.237,1.953,6.969,2.932,10.748,2.82c5.969,0.11,12.017-0.094,17.985-0.579c4.199-0.392,8.397-0.972,12.534-1.363
		c0.146-0.086,0.316-0.125,0.485-0.109c3.321-0.674,2.742-0.282,4.215-3.024c2.334-4.198,4.778-8.397,6.925-12.706
		c0.485-1.065,1.081-1.269,2.256-0.877c1.699,0.33,2.808,1.976,2.478,3.674c-0.049,0.252-0.129,0.496-0.237,0.729
		c-0.679,1.932-1.464,3.825-2.35,5.672c-0.674,1.362-1.27,2.819-1.942,4.198c0.485,0.486,0.971,0.188,1.362,0.188
		c8.116-1.567,16.31-2.727,24.52-3.619c4.312-0.556,8.656-0.812,13.004-0.768c1.977,0.101,3.939,0.395,5.859,0.877
		c2.745,0.664,5.047,2.528,6.267,5.076c0.989,2.098,0.878,4.549-0.297,6.549c-0.092,0.217-0.225,0.414-0.393,0.58
		c-0.392,0.392-0.673,0.783-1.269,0.595c-0.596-0.188-0.188-0.783-0.094-1.175c0.318-0.896,0.58-1.813,0.783-2.741
		c0.818-1.909-0.065-4.12-1.974-4.938c-0.123-0.053-0.249-0.099-0.377-0.138c-1.497-0.699-3.126-1.067-4.778-1.081
		c-4.507-0.109-9.017,0.121-13.489,0.688c-6.737,0.784-13.474,1.661-20.227,2.836c-3.321,0.486-6.549,1.176-9.87,1.661
		c-1.027,0.057-1.903,0.763-2.178,1.755c-2.632,5.766-5.374,11.437-7.912,17.233c-2.93,6.737-5.859,13.474-8.491,20.368
		c-3.52,8.767-6.395,17.778-8.602,26.963c-0.696,2.691-1.158,5.438-1.379,8.21c-0.094,0.579-0.376,1.457,0.203,1.754
		c0.58,0.298,1.082-0.485,1.457-0.877c3.924-4.177,7.532-8.638,10.795-13.349c5.876-8.413,11.438-16.999,17.109-25.506
		c2.052-3.134,4.387-6.063,6.643-8.993c0.482-0.679,1.076-1.272,1.755-1.755c0.485-0.188,0.783,0,0.877,0.392
		c0.117,0.739-0.021,1.496-0.392,2.146c-0.429,1.125-1.02,2.181-1.755,3.134c-5.374,8.1-10.262,16.403-15.432,24.613
		c-4.325,6.876-9.126,13.44-14.367,19.646c-1.058,1.287-2.273,2.435-3.619,3.415c-1.654,1.129-3.702,1.521-5.656,1.082
		c-1.811-0.302-3.27-1.65-3.713-3.432c-0.585-1.895-0.787-3.887-0.595-5.859c0.663-4.819,1.674-9.584,3.023-14.258
		c0.783-2.835,1.771-5.468,2.647-8.209c3.022-9.526,6.542-18.888,10.544-28.045c0.596-1.362,1.176-2.632,1.771-4.011
		c0.094-0.016,0-0.109,0-0.392H508.993z M465.125,81.083c0.674-0.109,0.877-0.596,1.269-0.893c1.573-1.594,3.039-3.289,4.388-5.076
		c3.133-3.808,6.454-7.317,8.209-12.018c0.17-0.39,0.403-0.75,0.689-1.065c0.85-1.277,0.997-2.897,0.392-4.308
		c-0.392-1.176-0.595-1.27-1.771-0.878c-2.136,0.678-3.997,2.023-5.311,3.839c-1.792,2.148-3.245,4.558-4.309,7.144
		c-1.516,3.493-2.691,7.124-3.51,10.842c-0.238,0.776-0.238,1.605,0,2.382L465.125,81.083z M551.827,71.651
		c0.857-0.036,1.694-0.272,2.444-0.689c2.01-0.901,3.883-2.083,5.562-3.51c0.651-0.638,1.378-1.195,2.162-1.66
		c0.486-0.204,0.972-0.392,1.457,0c0.409,0.423,0.397,1.098-0.025,1.506c-0.022,0.021-0.045,0.042-0.068,0.061
		c-0.374,0.587-0.834,1.115-1.363,1.566c-2.837,2.813-6.509,4.633-10.466,5.187c-0.736,0.084-1.389,0.515-1.754,1.159
		c-0.776,1.512-1.729,2.926-2.836,4.215c-1.869,2.708-4.76,4.54-8.006,5.076c-1.997,0.303-4.039-0.003-5.859-0.878
		c-2.237-1.139-3.638-3.443-3.619-5.953c-0.296-4.33,0.581-8.66,2.537-12.534c0.777-1.668,1.694-3.267,2.742-4.778
		c0.866-1.295,1.922-2.452,3.134-3.431c0.65-0.447,1.214-1.011,1.66-1.661c0.527-0.725,1.293-1.241,2.162-1.457
		c2.804-0.935,5.85-0.834,8.586,0.282c3.228,1.566,4.606,3.619,4.402,7.724c-0.336,2.589-1.026,5.119-2.052,7.521
		C552.407,70.085,552.219,70.727,551.827,71.651z M538.839,66.857c-0.715,1.656-1.21,3.4-1.473,5.186
		c-0.585,2.432-0.687,4.955-0.297,7.427c0.297,2.146,0.877,2.443,2.538,1.159c2.115-1.676,3.904-3.726,5.279-6.048
		c0.689-1.081,0.689-1.081-0.392-1.755c-2.007-1.14-3.64-2.838-4.7-4.888c-0.137-0.499-0.486-0.911-0.956-1.128V66.857z
		 M547.425,70.085c1.49-3.358,2.289-6.981,2.351-10.654c-0.01-0.565-0.11-1.127-0.298-1.66c-0.392-0.878-0.674-1.065-1.567-0.783
		c-1.109,0.294-2.166,0.759-3.133,1.378c-0.75,0.452-1.199,1.271-1.175,2.146c0.038,2.897,0.891,5.727,2.459,8.163
		C546.377,69.262,546.849,69.75,547.425,70.085z M609.953,82.618c1.216-0.246,2.377-0.708,3.431-1.362
		c5.117-2.583,9.988-5.624,14.555-9.088c1.887-1.538,3.59-3.289,5.077-5.217c0.458-0.409,0.498-1.112,0.09-1.57
		c-0.028-0.032-0.059-0.063-0.09-0.091c-0.47-0.439-0.511-1.17-0.095-1.66c0.457-0.528,1.191-0.721,1.849-0.485
		c2.357,0.829,3.617,3.392,2.836,5.765c-0.523,1.527-1.313,2.949-2.334,4.199c-2.528,3.336-5.731,6.102-9.4,8.115
		c-5.455,3.046-11.196,5.549-17.141,7.474c-1.335,0.331-2.363,1.396-2.647,2.742c-0.5,1.913-0.763,3.881-0.783,5.859
		c0.109,1.175,0.109,1.269,1.269,1.269c0.502,0,0.987,0,1.176,0.58c0.15,0.516-0.045,1.071-0.486,1.379
		c-0.222,0.218-0.489,0.384-0.783,0.485c-2.104,0.652-4.385-0.189-5.562-2.053c-0.71-1.528-1.048-3.203-0.987-4.888
		c-0.094-2.93-0.094-2.93-2.93-2.538c-3.837,0.511-7.736-0.207-11.14-2.053c-3.023-1.566-5.374-3.807-5.766-7.521
		c-0.226-2.454,0.491-4.901,2.006-6.846c1.988-2.67,4.655-4.758,7.724-6.048c3.042-1.476,6.259-2.56,9.573-3.228
		c0.485-0.204,1.081-0.094,1.566-0.596c-0.321-0.539-0.754-1.004-1.27-1.362c-1.389-1.372-2.548-2.96-3.431-4.7
		c-1.068-2.208-0.877-4.818,0.501-6.847c1.276-2.063,3.015-3.8,5.076-5.076c5.19-3.759,11.454-5.742,17.861-5.656
		c3.311-0.023,6.348,1.835,7.833,4.794c1.172,1.775,0.971,4.122-0.485,5.672c-2.071,2.504-4.63,4.562-7.521,6.048
		c-0.53,0.268-1.164,0.231-1.66-0.095c-0.448-0.244-0.614-0.806-0.369-1.254c0.044-0.08,0.1-0.154,0.165-0.219
		c0.408-0.47,0.865-0.896,1.363-1.269c1.762-1.322,3.202-3.025,4.214-4.982c0.486-0.877,1.27-1.849,0.674-2.726
		c-0.595-0.878-1.849-0.502-2.726-0.393c-3.253,0.432-6.407,1.423-9.322,2.931c-2.617,1.234-5.078,2.775-7.332,4.59
		c-1.342,0.953-2.42,2.23-3.134,3.713c-0.739,1.099-0.448,2.588,0.649,3.327c0.103,0.069,0.21,0.131,0.322,0.183
		c2.034,1.386,4.324,2.35,6.737,2.836c1.786,0.526,3.522,1.213,5.186,2.053c1.66,0.689,1.849,1.958,0.971,3.713
		c-1.566,3.415-3.227,6.94-4.778,10.355C610.116,81.382,609.929,81.995,609.953,82.618z M607.164,71.4
		c-0.424-0.212-0.914-0.246-1.363-0.094c-4.489,0.875-8.811,2.461-12.8,4.7c-2.194,1.119-4.103,2.728-5.577,4.7
		c-0.77,1.014-1.213,2.238-1.27,3.51c-0.094,1.958,0.485,2.647,2.444,2.836c3.673,0.379,7.385,0.114,10.967-0.784
		c0.677-0.126,1.191-0.679,1.27-1.362c0.899-3.583,2.364-6.999,4.34-10.121C605.863,73.751,606.537,72.67,607.164,71.4z
		 M678.184,87.914c-0.188-0.392-0.579-0.392-0.971-0.485c-3.411-0.861-6.498-2.695-8.884-5.28c-2.292-2.347-4.234-5.012-5.766-7.912
		c-3.741-6.964-2.605-15.542,2.82-21.292c4.433-4.938,10.614-7.956,17.233-8.413c8.304-0.877,15.934,1.175,23.36,4.794
		c0.291,0.221,0.62,0.385,0.972,0.486c0.971,0.485,1.175,0.485,1.958-0.392c3.415-3.901,7.034-7.614,10.45-11.422
		c3.807-4.215,7.614-8.319,11.625-12.408c5.668-5.843,11.753-11.268,18.205-16.231c1.492-1.12,3.063-2.131,4.7-3.023
		c2.147-1.029,4.706-0.645,6.455,0.971c1.695,1.222,2.503,3.334,2.053,5.374c-0.462,2.747-1.219,5.437-2.257,8.021
		c-3.023,7.912-6.549,15.668-9.87,23.345c-2.24,5.186-4.293,10.45-6.345,15.667c-3.319,8.715-6.154,17.606-8.492,26.635
		c-1.139,3.98-1.796,8.083-1.958,12.22c-0.241,4.302,0.322,8.611,1.66,12.706c0.366,0.874,0.79,1.722,1.27,2.538
		c0.526,0.977,1.729,1.363,2.726,0.878l2.053-0.596c0.392-0.094,0.783-0.188,1.081,0.109c0.27,0.394,0.23,0.921-0.094,1.27
		c-0.672,0.926-1.712,1.515-2.852,1.613c-3.619,0.393-6.455-0.109-8.993-4.011c-0.615-0.906-1.105-1.892-1.457-2.93
		c-1.52-3.924-2.505-8.034-2.93-12.22c-0.411-4.146-0.184-8.331,0.674-12.409c0.456-2.698,0.152-5.47-0.877-8.006
		c-2.677-7.692-7.208-14.607-13.192-20.132c-1.942-1.85-1.942-1.85-3.713,0.203c-4.387,5.28-8.695,10.45-12.988,15.667
		c-5.672,6.831-11.233,13.678-16.811,20.524c-2.991,3.691-6.22,7.182-9.667,10.45c-0.76,0.784-1.612,1.474-2.538,2.053
		c-1.237,0.869-2.856,0.978-4.199,0.281c-0.689-0.376-0.783-1.065-0.109-1.362c1.938-0.797,3.627-2.102,4.888-3.776
		c3.525-3.807,6.847-7.833,10.074-12.126c0.282-0.407,0.768-0.783,0.768-1.379H678.184z M689.041,48.057
		c-1.575-0.006-3.147,0.125-4.7,0.392c-6.177,0.893-11.682,4.374-15.135,9.572c-3.184,4.492-3.951,10.265-2.052,15.433
		c1.411,4.159,3.989,7.824,7.426,10.56c1.226,0.961,2.617,1.688,4.105,2.146c0.572,0.195,1.205-0.001,1.566-0.485
		c0.783-1.081,1.566-2.053,2.35-3.134c3.808-5.28,7.834-10.356,12.018-15.526c1.66-2.052,3.619-3.917,5.186-6.063
		c1.584-2.543,3.484-4.875,5.656-6.94l0.297-0.281c0.486-0.689,0.486-0.894-0.188-1.379c-0.215-0.156-0.445-0.288-0.689-0.392
		c-4.84-2.625-10.271-3.968-15.777-3.901H689.041z M729.087,74.926c0.134-0.574,0.333-1.132,0.595-1.661
		c1.85-5.577,3.808-11.139,5.954-16.513s4.888-10.967,7.332-16.325s4.7-10.544,7.223-15.824c1.771-3.807,3.525-7.521,4.982-11.327
		c0.203-0.486,0.595-0.987,0.392-1.661c-1.074,0.447-2.064,1.072-2.93,1.849c-5.945,4.553-11.592,9.482-16.905,14.759
		c-4.387,4.199-8.586,8.602-12.784,13.098c-2.554,2.82-5.28,5.374-7.536,8.397c-0.429,0.659-0.917,1.278-1.457,1.85
		c-1.566,1.66-1.566,1.66,0.188,3.227c4.704,3.932,8.677,8.663,11.735,13.976c1.128,1.958,2.115,3.901,3.274,6.157H729.087z
		 M769.147,58.209c-1.277,0.583-2.419,1.426-3.353,2.476c-4.268,3.721-8.133,7.879-11.531,12.408
		c-0.681,0.987-1.269,2.036-1.755,3.134c-0.986,2.146-1.864,4.198-2.93,6.267c-0.789,2.162-3.182,3.275-5.344,2.485
		c-0.11-0.04-0.22-0.086-0.327-0.136c-1.176-0.297-1.473-0.783-1.363-1.958c0.096-0.835,0.291-1.655,0.58-2.444
		c2.797-7.934,6.126-15.67,9.964-23.156c0.763-1.438,1.644-2.811,2.632-4.104c0.513-0.767,1.48-1.089,2.351-0.783
		c0.774,0.182,1.504,0.518,2.146,0.987c1.155,0.801,1.636,2.274,1.175,3.604c-0.335,0.84-0.47,1.746-0.392,2.647
		c0.485-0.596,1.081-1.081,1.66-1.661c1.33-1.379,2.731-2.686,4.199-3.917c0.97-0.71,2.021-1.299,3.134-1.754
		c1.972-0.758,4.201-0.34,5.766,1.081c1.296,1.202,1.652,3.111,0.877,4.7c-0.965,2.91-2.138,5.748-3.51,8.491
		c-1.821,3.667-3.295,7.496-4.402,11.438c-0.382,0.821-0.549,1.728-0.485,2.632c0.65-0.282,1.197-0.758,1.566-1.363
		c3.228-3.807,6.361-7.614,9.589-11.421c0.558-0.748,1.254-1.382,2.052-1.865c0.354-0.213,0.749-0.347,1.159-0.392
		c0.689,0,1.081,0.392,0.784,0.972c-0.096,0.297-0.263,0.566-0.486,0.783c-3.208,4.947-6.729,9.683-10.544,14.179
		c-1.637,1.985-3.989,3.246-6.549,3.51c-3.415,0.298-5.279-1.27-5.076-5.374c0.354-3.331,1.21-6.591,2.538-9.667
		c1.617-3.771,3.476-7.434,5.562-10.967c0.213-0.228,0.346-0.52,0.377-0.83H769.147z M791.427,71.009
		c-1.196,0.078-2.396-0.087-3.525-0.485c-0.783-0.188-1.269-0.094-1.457,0.689c-0.827,2.654-1.031,5.464-0.595,8.209
		c0.109,0.504,0.277,0.993,0.501,1.457c0.53,1.647,2.296,2.553,3.943,2.021c0.06-0.019,0.118-0.04,0.177-0.063
		c2.786-0.873,5.426-2.156,7.834-3.808c5.172-3.598,9.955-7.725,14.272-12.314c0.457-0.561,1.022-1.023,1.661-1.362
		c0.425-0.273,0.979-0.235,1.363,0.094c0.351,0.365,0.432,0.911,0.203,1.363c-0.301,0.59-0.663,1.146-1.081,1.66
		c-4.23,5.204-9.24,9.723-14.853,13.396c-2.977,2.067-6.446,3.311-10.059,3.604c-2.04,0.216-4.102-0.119-5.969-0.972
		c-1.908-0.912-3.354-2.574-3.995-4.59c-1.109-2.969-1.349-6.191-0.689-9.291c1.229-7.41,6.165-13.677,13.082-16.607
		c2.494-1.299,5.355-1.713,8.116-1.175c1.59,0.438,3.084,1.171,4.402,2.162c1.436,0.956,2.104,2.72,1.66,4.387
		c-0.232,1.128-0.628,2.215-1.175,3.228c-2.632,4.011-5.859,7.129-10.653,8.115c-1.016,0.241-2.061,0.337-3.103,0.282H791.427z
		 M801.688,57.724c0.094-1.363-0.203-1.661-1.473-1.363c-1.337,0.235-2.624,0.696-3.807,1.363c-2.459,1.585-4.64,3.564-6.455,5.859
		c-0.58,0.877-1.175,1.864-1.755,2.836c-0.188,0.297-0.392,0.595-0.094,0.986c0.297,0.392,0.579,0.188,0.971,0.188
		c1.514-0.195,2.994-0.591,4.402-1.175c2.625-1.3,4.951-3.13,6.831-5.374c0.797-0.941,1.299-2.097,1.441-3.321H801.688z
		 M817.355,84.106c-1.028,0.063-2.06-0.069-3.039-0.392c-2.67-0.721-4.489-3.189-4.387-5.953c0.109-2.526,0.567-5.025,1.363-7.427
		c1.471-4.788,3.298-9.46,5.468-13.975c2.816-6.155,5.954-12.159,9.4-17.986c1.269-2.037,2.632-3.995,3.995-5.953
		c0.336-0.413,0.697-0.806,1.081-1.176c0.689-0.783,1.362-1.942,2.632-1.66c1.512,0.286,2.825,1.211,3.604,2.538
		c0.313,0.604,0.313,1.322,0,1.927c-0.877,2.146-2.053,4.199-3.134,6.346c-5.279,9.87-10.747,19.74-15.04,30.097
		c-0.861,2.086-1.548,4.239-2.053,6.439c-0.233,1.129-0.266,2.29-0.094,3.431c0.094,0.58,0.392,0.877,0.971,0.58
		c0.58-0.298,1.176-0.689,1.755-1.065c4.105-2.836,7.725-6.268,11.531-9.4c1.27-1.081,2.538-2.053,3.808-3.134
		c0.787-0.674,1.729-1.143,2.741-1.363c0.486-0.094,0.972-0.297,1.27,0.204s0.188,0.972-0.095,1.457
		c-0.281,0.485-0.595,0.689-0.877,1.081c-4.011,3.995-8.115,7.834-12.314,11.625c-1.258,1.098-2.646,2.035-4.136,2.789
		c-1.325,0.72-2.816,1.082-4.324,1.05L817.355,84.106z M847.124,71.009c-1.196,0.078-2.396-0.087-3.525-0.485
		c-0.783-0.188-1.27-0.094-1.457,0.689c-0.785,2.686-0.936,5.518-0.438,8.272c0.104,0.503,0.268,0.991,0.485,1.457
		c0.534,1.646,2.301,2.548,3.947,2.014c0.053-0.017,0.105-0.035,0.157-0.056c2.786-0.873,5.426-2.156,7.834-3.807
		c5.172-3.599,9.955-7.726,14.272-12.314c0.458-0.561,1.022-1.024,1.661-1.363c0.425-0.273,0.979-0.235,1.363,0.094
		c0.354,0.364,0.431,0.917,0.188,1.363c-0.296,0.588-0.658,1.14-1.081,1.645c-4.259,5.212-9.301,9.73-14.946,13.396
		c-2.983,2.065-6.458,3.308-10.074,3.604c-2.035,0.217-4.092-0.119-5.953-0.971c-1.909-0.917-3.358-2.576-4.011-4.591
		c-1.097-2.972-1.33-6.192-0.674-9.291c1.229-7.41,6.165-13.677,13.082-16.607c2.494-1.299,5.355-1.713,8.115-1.175
		c1.587,0.435,3.076,1.168,4.388,2.162c1.439,0.952,2.108,2.72,1.66,4.387c-0.22,1.129-0.611,2.217-1.159,3.228
		c-2.647,4.011-5.875,7.129-10.653,8.116c-0.992,0.218-2.011,0.297-3.024,0.234H847.124z M857.37,57.724
		c0.109-1.363-0.188-1.661-1.457-1.363c-1.337,0.235-2.624,0.696-3.808,1.363c-2.459,1.585-4.64,3.564-6.454,5.859
		c-0.58,0.877-1.176,1.864-1.755,2.836c-0.204,0.297-0.392,0.595-0.094,0.986c0.297,0.392,0.579,0.188,0.971,0.188
		c1.513-0.197,2.993-0.593,4.402-1.175c2.622-1.304,4.947-3.134,6.831-5.374c0.832-0.928,1.362-2.086,1.52-3.321H857.37z"/>
	<g>
		<path d="M386.157,138.013l-0.181,0.162c-0.567,0.023-0.893,0.044-0.977,0.054c-0.396,0.073-0.691,0.209-0.885,0.407
			c-0.192,0.199-0.36,0.503-0.506,0.912c-0.289,0.795-0.825,2.577-1.606,5.346c-0.398,1.398-0.958,3.494-1.681,6.287l-1.626,6.25
			c-0.675,2.577-1.054,4.227-1.138,4.949h-2.764l-0.922-2.492c-1.529-4.118-2.938-7.804-4.228-11.056l-1.029-2.583
			c-0.229-0.589-0.463-1.216-0.704-1.878l-4.714,11.182c-0.47,1.107-1.127,2.721-1.97,4.841l-0.794,1.986h-2.638l-4.462-20.718
			c-0.229-1.061-0.397-1.753-0.506-2.078c-0.24-0.759-0.584-1.185-1.029-1.282c-0.205-0.048-0.675-0.097-1.409-0.145l-0.181-0.163
			v-1.138l0.199-0.199c2.132,0.073,3.745,0.109,4.84,0.109c1.302,0,3.204-0.036,5.709-0.109l0.199,0.181v1.156l-0.181,0.163
			c-0.819,0.036-1.284,0.062-1.391,0.071c-0.459,0.049-0.76,0.143-0.903,0.28c-0.145,0.14-0.218,0.358-0.218,0.66
			c0,0.277,0.115,1.029,0.343,2.258l0.615,3.306c0.181,0.951,0.5,2.486,0.956,4.605l1.067,4.896l2.275-5.474
			c0.458-1.084,1.145-2.716,2.06-4.896l2.131-5.165c0.398-0.951,0.71-1.74,0.939-2.367h1.663c1.228,3.47,3.516,9.358,6.863,17.666
			l3.197-12.806c0.241-1.023,0.36-1.662,0.36-1.914c0-0.543-0.282-0.855-0.849-0.94c-0.205-0.036-0.85-0.089-1.933-0.163
			l-0.181-0.181v-1.138l0.198-0.199c2.071,0.085,3.275,0.122,3.613,0.109l4.191-0.109l0.181,0.181V138.013z"/>
		<path d="M420.735,156.113c-0.266,1.757-0.397,3.744-0.397,5.96l-0.181,0.181l-13.133-0.108c-2.191,0-3.738,0.036-4.642,0.108
			l-0.181-0.181v-0.505l0.09-0.219c0.893-0.565,1.372-0.92,1.446-1.064c0.106-0.229,0.174-1.029,0.198-2.402l0.054-4.046v-9.158
			c0-2.866-0.078-4.732-0.234-5.602c-0.062-0.349-0.266-0.571-0.615-0.666c-0.181-0.05-0.885-0.109-2.112-0.183l-0.181-0.181v-1.228
			l0.181-0.163c1.216,0.073,3.095,0.109,5.636,0.109c2.263,0,6.568-0.036,12.915-0.109l0.198,0.146l-0.234,2.005
			c-0.071,0.639-0.127,1.181-0.162,1.625l-0.128,1.68l-0.181,0.199h-1.047l-0.181-0.181c-0.012-1.637-0.107-2.57-0.29-2.8
			c-0.131-0.168-0.778-0.301-1.94-0.396c-1.163-0.097-2.184-0.146-3.063-0.146c-1.048,0-2.106,0.043-3.178,0.127
			c-0.133,1.264-0.199,3.016-0.199,5.256v3.739c0.951,0.061,1.722,0.09,2.312,0.09l2.367-0.019c1.106-0.011,1.733-0.101,1.878-0.27
			c0.193-0.217,0.319-1.029,0.38-2.438l0.18-0.181h1.121l0.181,0.181c-0.05,1.349-0.073,2.582-0.073,3.702
			c0,1.216,0.023,2.547,0.073,3.991l-0.181,0.163h-1.21l-0.181-0.181c0-1.386-0.097-2.206-0.29-2.466
			c-0.192-0.258-0.777-0.43-1.752-0.515c-0.735-0.06-1.517-0.091-2.349-0.091c-0.878,0-1.698,0.031-2.456,0.091v5.509
			c0,1.577,0.03,3.107,0.09,4.589h2.456c3.517,0,5.674-0.139,6.467-0.417c0.134-0.047,0.229-0.112,0.29-0.197
			c0.119-0.169,0.234-0.53,0.343-1.084l0.433-2.239l0.181-0.198h1.104L420.735,156.113z"/>
		<path d="M464.471,147.947c0,4.082-1.331,7.467-3.991,10.151c-1.302,1.313-2.879,2.331-4.733,3.053
			c-1.986,0.784-4.305,1.15-6.953,1.103l-6.377-0.108c-1.735-0.024-3.168,0.012-4.3,0.108l-0.181-0.181v-0.505l0.091-0.219
			c0.891-0.565,1.373-0.92,1.444-1.064c0.109-0.217,0.175-1.019,0.2-2.402l0.054-4.046v-9.158c0-2.866-0.079-4.732-0.235-5.602
			c-0.061-0.349-0.265-0.571-0.614-0.666c-0.181-0.05-0.885-0.109-2.112-0.183l-0.182-0.181v-1.228l0.182-0.163
			c1.275,0.073,2.492,0.109,3.648,0.109c2.805,0,5.335-0.036,7.586-0.109c1.121-0.035,2.246-0.054,3.379-0.054
			c3.13,0,5.532,0.355,7.207,1.065c1.829,0.784,3.263,2.012,4.299,3.687C463.941,143.077,464.471,145.275,464.471,147.947z
			 M458.926,148.814c0-3.335-0.807-5.9-2.42-7.695c-0.843-0.939-1.896-1.602-3.162-1.986c-1.204-0.361-2.884-0.542-5.039-0.542
			c-1.121,0-2.192,0.078-3.216,0.234c-0.121,1.35-0.181,4.613-0.181,9.791l0.036,7.893c0.012,1.76,0.061,2.927,0.145,3.506
			c1.06,0.169,2.143,0.252,3.252,0.252c2.396,0,4.286-0.349,5.672-1.047c1.493-0.758,2.68-2.047,3.559-3.867
			C458.474,153.475,458.926,151.296,458.926,148.814z"/>
		<path d="M508.533,147.947c0,4.082-1.331,7.467-3.993,10.151c-1.299,1.313-2.878,2.331-4.731,3.053
			c-1.987,0.784-4.305,1.15-6.955,1.103l-6.376-0.108c-1.733-0.024-3.168,0.012-4.299,0.108l-0.181-0.181v-0.505l0.09-0.219
			c0.893-0.565,1.372-0.92,1.445-1.064c0.107-0.217,0.175-1.019,0.198-2.402l0.054-4.046v-9.158c0-2.866-0.077-4.732-0.234-5.602
			c-0.061-0.349-0.265-0.571-0.614-0.666c-0.181-0.05-0.885-0.109-2.113-0.183l-0.181-0.181v-1.228l0.181-0.163
			c1.276,0.073,2.494,0.109,3.649,0.109c2.807,0,5.334-0.036,7.588-0.109c1.119-0.035,2.245-0.054,3.376-0.054
			c3.131,0,5.534,0.355,7.207,1.065c1.831,0.784,3.264,2.012,4.3,3.687C508.002,143.077,508.533,145.275,508.533,147.947z
			 M502.987,148.814c0-3.335-0.806-5.9-2.42-7.695c-0.844-0.939-1.897-1.602-3.161-1.986c-1.204-0.361-2.885-0.542-5.04-0.542
			c-1.119,0-2.192,0.078-3.215,0.234c-0.12,1.35-0.181,4.613-0.181,9.791l0.036,7.893c0.012,1.76,0.06,2.927,0.145,3.506
			c1.06,0.169,2.143,0.252,3.252,0.252c2.395,0,4.287-0.349,5.671-1.047c1.492-0.758,2.679-2.047,3.558-3.867
			C502.536,153.475,502.987,151.296,502.987,148.814z"/>
		<path d="M536.48,162.073l-0.161,0.181c-1.205-0.072-3.064-0.108-5.581-0.108c-2.505,0-4.359,0.036-5.563,0.108l-0.163-0.181v-1.21
			l0.181-0.182c1.229-0.071,1.934-0.132,2.114-0.181c0.35-0.096,0.554-0.317,0.613-0.667c0.156-0.868,0.235-2.734,0.235-5.6v-9.556
			c0-2.866-0.079-4.732-0.235-5.602c-0.06-0.349-0.264-0.571-0.613-0.666c-0.181-0.05-0.885-0.109-2.114-0.183l-0.181-0.181v-1.228
			l0.181-0.163c1.156,0.073,3.011,0.109,5.564,0.109c2.54,0,4.39-0.036,5.545-0.109l0.179,0.163v1.228l-0.179,0.181
			c-1.229,0.073-1.934,0.133-2.113,0.183c-0.349,0.095-0.555,0.317-0.614,0.666c-0.157,0.869-0.236,2.735-0.236,5.602v9.556
			c0,2.865,0.079,4.731,0.236,5.6c0.06,0.35,0.266,0.571,0.614,0.667c0.18,0.049,0.884,0.109,2.113,0.181l0.179,0.182V162.073z"/>
		<path d="M580.886,138.048l-0.197,0.181c-1.23,0.073-1.935,0.133-2.115,0.183c-0.349,0.095-0.554,0.317-0.613,0.666
			c-0.156,0.869-0.235,2.735-0.235,5.602v7.333c0,5.408,0.079,8.93,0.235,10.568l-0.235,0.16c-1.36-0.228-2.391-0.39-3.089-0.486
			c-3.228-3.624-8.736-10.235-16.527-19.834v11.814c0,2.865,0.078,4.731,0.234,5.6c0.062,0.35,0.266,0.571,0.614,0.667
			c0.181,0.049,0.886,0.109,2.113,0.181l0.181,0.182v1.229l-0.181,0.162c-1.385-0.072-2.673-0.108-3.864-0.108
			c-1.386,0-2.777,0.036-4.174,0.108l-0.181-0.162v-1.229l0.181-0.182c1.228-0.071,1.934-0.132,2.114-0.181
			c0.35-0.096,0.554-0.317,0.613-0.667c0.156-0.868,0.235-2.734,0.235-5.6v-9.556c0-2.866-0.079-4.732-0.235-5.602
			c-0.06-0.349-0.264-0.571-0.613-0.666c-0.181-0.05-0.887-0.109-2.114-0.183l-0.181-0.181v-1.228l0.181-0.163
			c1.145,0.073,2.233,0.109,3.27,0.109c1.626,0,2.975-0.036,4.047-0.109c4.334,5.781,9.429,11.977,15.281,18.588v-10.566
			c0-2.866-0.078-4.732-0.234-5.602c-0.062-0.349-0.266-0.571-0.615-0.666c-0.181-0.05-0.885-0.109-2.112-0.183l-0.181-0.181v-1.228
			l0.181-0.163c1.349,0.073,2.63,0.109,3.847,0.109c1.553,0,2.95-0.036,4.191-0.109l0.18,0.163V138.048z"/>
		<path d="M624.441,153.024l-0.181,0.198c-0.746,0.18-1.18,0.431-1.299,0.749c-0.121,0.319-0.181,1.538-0.181,3.658
			c0,1.023,0.048,2.036,0.145,3.034c-4.023,1.518-7.671,2.277-10.946,2.277c-4.311,0-7.802-1.208-10.468-3.622
			c-2.668-2.414-4.003-5.706-4.003-9.872c0-5.432,2.355-9.303,7.064-11.615c2.155-1.06,4.895-1.59,8.218-1.59
			c1.928,0,3.878,0.211,5.854,0.634c1.625,0.349,2.908,0.746,3.847,1.192l0.163,0.323c-0.313,1.062-0.571,2.902-0.777,5.528
			l-0.198,0.181h-1.083l-0.181-0.181c0-0.229-0.023-0.701-0.072-1.419c-0.05-0.717-0.108-1.219-0.183-1.507
			c-0.529-0.724-1.432-1.337-2.707-1.844c-1.373-0.529-2.855-0.795-4.444-0.795c-4.263,0-7.207,1.722-8.834,5.166
			c-0.746,1.591-1.119,3.432-1.119,5.528c0,3.348,0.891,6.122,2.673,8.327c1.854,2.289,4.269,3.432,7.245,3.432
			c1.576,0,3.099-0.338,4.568-1.012c0.085-0.842,0.127-1.998,0.127-3.468c0-1.192-0.042-1.914-0.127-2.168
			c-0.071-0.192-0.301-0.33-0.687-0.415c-0.325-0.072-1.343-0.163-3.053-0.271l-0.198-0.181v-1.138l0.198-0.181
			c1.746,0.049,3.576,0.066,5.491,0.054c1.108-0.011,2.766-0.029,4.967-0.054l0.181,0.181V153.024z"/>
		<path d="M675.03,162.073l-0.163,0.181c-1.204-0.072-3.063-0.108-5.58-0.108c-2.506,0-4.36,0.036-5.564,0.108l-0.162-0.181v-1.21
			l0.181-0.182c1.229-0.071,1.933-0.132,2.113-0.181c0.349-0.096,0.554-0.317,0.613-0.667c0.156-0.868,0.235-2.734,0.235-5.6v-9.556
			c0-2.866-0.079-4.732-0.235-5.602c-0.06-0.349-0.265-0.571-0.613-0.666c-0.181-0.05-0.885-0.109-2.113-0.183l-0.181-0.181v-1.228
			l0.181-0.163c1.155,0.073,3.01,0.109,5.563,0.109c2.541,0,4.389-0.036,5.545-0.109l0.181,0.163v1.228l-0.181,0.181
			c-1.229,0.073-1.933,0.133-2.113,0.183c-0.35,0.095-0.554,0.317-0.614,0.666c-0.155,0.869-0.234,2.735-0.234,5.602v9.556
			c0,2.865,0.079,4.731,0.234,5.6c0.061,0.35,0.265,0.571,0.614,0.667c0.181,0.049,0.885,0.109,2.113,0.181l0.181,0.182V162.073z"/>
		<path d="M719.436,138.048l-0.198,0.181c-1.229,0.073-1.934,0.133-2.114,0.183c-0.35,0.095-0.554,0.317-0.613,0.666
			c-0.156,0.869-0.236,2.735-0.236,5.602v7.333c0,5.408,0.08,8.93,0.236,10.568l-0.236,0.16c-1.36-0.228-2.39-0.39-3.089-0.486
			c-3.228-3.624-8.736-10.235-16.526-19.834v11.814c0,2.865,0.077,4.731,0.234,5.6c0.061,0.35,0.265,0.571,0.614,0.667
			c0.181,0.049,0.885,0.109,2.113,0.181l0.181,0.182v1.229l-0.181,0.162c-1.386-0.072-2.673-0.108-3.865-0.108
			c-1.385,0-2.776,0.036-4.174,0.108l-0.181-0.162v-1.229l0.181-0.182c1.228-0.071,1.935-0.132,2.114-0.181
			c0.35-0.096,0.554-0.317,0.613-0.667c0.157-0.868,0.236-2.734,0.236-5.6v-9.556c0-2.866-0.079-4.732-0.236-5.602
			c-0.06-0.349-0.264-0.571-0.613-0.666c-0.18-0.05-0.887-0.109-2.114-0.183l-0.181-0.181v-1.228l0.181-0.163
			c1.145,0.073,2.233,0.109,3.27,0.109c1.627,0,2.975-0.036,4.047-0.109c4.334,5.781,9.43,11.977,15.281,18.588v-10.566
			c0-2.866-0.078-4.732-0.234-5.602c-0.061-0.349-0.265-0.571-0.615-0.666c-0.181-0.05-0.884-0.109-2.112-0.183l-0.181-0.181v-1.228
			l0.181-0.163c1.349,0.073,2.631,0.109,3.847,0.109c1.554,0,2.95-0.036,4.191-0.109l0.181,0.163V138.048z"/>
		<path d="M762.124,138.068l-0.181,0.181c-0.843,0.082-1.382,0.183-1.616,0.296c-0.234,0.115-0.484,0.39-0.749,0.822
			c-0.29,0.471-0.807,1.603-1.555,3.396l-1.282,3.054l-2.42,5.888c-2.083,5.059-3.485,8.615-4.209,10.675h-2.746l-8.291-20.104
			c-0.878-2.096-1.493-3.299-1.842-3.612c-0.265-0.252-1-0.391-2.204-0.414l-0.181-0.201v-1.191l0.198-0.199
			c1.266,0.073,2.86,0.109,4.787,0.109c2.408,0,4.6-0.036,6.576-0.109l0.181,0.199v1.212l-0.163,0.181
			c-1.216,0.011-2.018,0.119-2.402,0.323c-0.206,0.12-0.308,0.325-0.308,0.614c0,0.313,0.392,1.458,1.175,3.433l0.85,2.149
			l4.568,11.289l4.011-10.061c0.156-0.385,0.518-1.355,1.083-2.908c0.819-2.239,1.229-3.547,1.229-3.92
			c0-0.397-0.133-0.639-0.397-0.722c-0.266-0.086-1.07-0.151-2.42-0.198l-0.181-0.181v-1.23l0.198-0.181
			c1.361,0.073,2.776,0.109,4.245,0.109c1.048,0,2.33-0.036,3.848-0.109l0.198,0.199V138.068z"/>
		<path d="M788.972,162.073l-0.163,0.181c-1.204-0.072-3.063-0.108-5.58-0.108c-2.506,0-4.361,0.036-5.564,0.108l-0.162-0.181v-1.21
			l0.181-0.182c1.228-0.071,1.933-0.132,2.113-0.181c0.349-0.096,0.554-0.317,0.613-0.667c0.156-0.868,0.235-2.734,0.235-5.6v-9.556
			c0-2.866-0.079-4.732-0.235-5.602c-0.06-0.349-0.265-0.571-0.613-0.666c-0.181-0.05-0.886-0.109-2.113-0.183l-0.181-0.181v-1.228
			l0.181-0.163c1.155,0.073,3.01,0.109,5.563,0.109c2.54,0,4.391-0.036,5.545-0.109l0.181,0.163v1.228l-0.181,0.181
			c-1.229,0.073-1.933,0.133-2.113,0.183c-0.35,0.095-0.554,0.317-0.614,0.666c-0.155,0.869-0.234,2.735-0.234,5.602v9.556
			c0,2.865,0.079,4.731,0.234,5.6c0.061,0.35,0.265,0.571,0.614,0.667c0.181,0.049,0.885,0.109,2.113,0.181l0.181,0.182V162.073z"/>
		<path d="M827.688,136.767c-0.145,0.891-0.224,1.813-0.236,2.764l-0.035,3.018l-0.181,0.181h-1.139l-0.198-0.163
			c-0.06-1.541-0.126-2.444-0.199-2.71c-0.144-0.482-0.529-0.764-1.156-0.85c-0.239-0.036-1.372-0.054-3.396-0.054h-2.421
			c-0.023,0.421-0.035,2.096-0.035,5.021v10.261c0,2.865,0.078,4.731,0.235,5.6c0.06,0.35,0.265,0.571,0.614,0.667
			c0.18,0.049,0.884,0.109,2.112,0.181l0.181,0.182v1.21l-0.181,0.181c-1.192-0.072-3.046-0.108-5.563-0.108
			c-2.577,0-4.432,0.036-5.563,0.108l-0.163-0.162v-1.229l0.18-0.182c1.229-0.071,1.933-0.132,2.113-0.181
			c0.349-0.096,0.554-0.317,0.615-0.667c0.154-0.868,0.234-2.734,0.234-5.6v-10.261c0-2.974-0.018-4.647-0.054-5.021h-2.584
			c-2.155,0-3.413,0.066-3.776,0.198c-0.192,0.072-0.324,0.163-0.397,0.271c-0.106,0.193-0.197,0.579-0.27,1.156
			c-0.085,0.639-0.139,1.296-0.163,1.971l-0.181,0.181h-1.139l-0.197-0.181l-0.036-3.089c-0.014-0.868-0.085-1.766-0.218-2.692
			l0.163-0.181c0.71,0.12,3.299,0.181,7.768,0.181h7.315c4.118,0,6.706-0.061,7.768-0.181L827.688,136.767z"/>
		<path d="M862.79,156.113c-0.267,1.757-0.399,3.744-0.399,5.96l-0.18,0.181l-13.132-0.108c-2.191,0-3.738,0.036-4.642,0.108
			l-0.181-0.181v-0.505l0.089-0.219c0.892-0.565,1.373-0.92,1.446-1.064c0.107-0.229,0.173-1.029,0.198-2.402l0.054-4.046v-9.158
			c0-2.866-0.079-4.732-0.234-5.602c-0.061-0.349-0.265-0.571-0.614-0.666c-0.181-0.05-0.885-0.109-2.113-0.183l-0.181-0.181v-1.228
			l0.181-0.163c1.216,0.073,3.095,0.109,5.636,0.109c2.265,0,6.568-0.036,12.915-0.109l0.198,0.146l-0.234,2.005
			c-0.072,0.639-0.126,1.181-0.161,1.625l-0.127,1.68l-0.181,0.199h-1.048l-0.181-0.181c-0.012-1.637-0.108-2.57-0.29-2.8
			c-0.132-0.168-0.778-0.301-1.94-0.396c-1.163-0.097-2.184-0.146-3.063-0.146c-1.048,0-2.106,0.043-3.18,0.127
			c-0.132,1.264-0.198,3.016-0.198,5.256v3.739c0.952,0.061,1.722,0.09,2.313,0.09l2.366-0.019c1.107-0.011,1.734-0.101,1.879-0.27
			c0.192-0.217,0.318-1.029,0.38-2.438l0.181-0.181h1.118l0.181,0.181c-0.048,1.349-0.071,2.582-0.071,3.702
			c0,1.216,0.023,2.547,0.071,3.991l-0.181,0.163h-1.21l-0.181-0.181c0-1.386-0.096-2.206-0.288-2.466
			c-0.193-0.258-0.776-0.43-1.754-0.515c-0.733-0.06-1.517-0.091-2.346-0.091c-0.881,0-1.698,0.031-2.458,0.091v5.509
			c0,1.577,0.029,3.107,0.09,4.589h2.457c3.518,0,5.672-0.139,6.467-0.417c0.134-0.047,0.229-0.112,0.29-0.197
			c0.119-0.169,0.234-0.53,0.343-1.084l0.434-2.239l0.18-0.198h1.104L862.79,156.113z"/>
	</g>
</g>
</svg>
