<svg width="73" height="20" xmlns="http://www.w3.org/2000/svg"><g fill="#FFF" fill-rule="evenodd"><path d="M26.74 9.486c0 .792.566.883 1.069.883 2.22 0 2.948-1.674 2.948-3.205 0-1.92-1.233-3.308-3.216-3.308-.421 0-.615.03-.801.041v5.589zm-1.007-4.82c0-.923-.482-.862-.944-.873v-.266c.4.02.81.02 1.212.02.431 0 1.017-.02 1.778-.02 2.66 0 4.109 1.776 4.109 3.596 0 1.018-.596 3.576-4.233 3.576-.523 0-1.007-.02-1.49-.02-.462 0-.914.01-1.376.02v-.268c.615-.062.914-.082.944-.78V4.667zM33.348 4.421a.527.527 0 0 1-.504-.513c0-.258.246-.495.504-.495.267 0 .504.216.504.495a.513.513 0 0 1-.504.513zm-1.1 6.01h.195c.288 0 .493 0 .493-.34V7.308c0-.452-.153-.514-.535-.718v-.165c.484-.145 1.059-.338 1.1-.37a.371.371 0 0 1 .186-.051c.05 0 .072.06.072.143v3.944c0 .34.226.34.513.34h.174v.268c-.349 0-.708-.02-1.078-.02-.37 0-.74.01-1.12.02v-.268zM35.423 7.37c0-.38-.113-.483-.596-.677v-.197c.441-.143.863-.278 1.356-.492.031 0 .06.02.06.1v.67c.588-.421 1.092-.77 1.78-.77.874 0 1.181.636 1.181 1.437v2.65c0 .34.227.34.514.34h.185v.268c-.36 0-.72-.02-1.088-.02-.371 0-.74.01-1.11.02v-.268h.184c.288 0 .492 0 .492-.34v-2.66c0-.586-.358-.873-.944-.873-.33 0-.853.267-1.193.494v3.04c0 .34.228.34.516.34h.184v.267c-.36 0-.72-.02-1.09-.02-.37 0-.74.01-1.11.02v-.268h.187c.287 0 .492 0 .492-.34V7.37M42.503 7.534c.257 0 .286-.134.286-.256 0-.525-.318-.947-.893-.947-.626 0-1.058.463-1.181 1.203h1.788zm-1.818.33c-.022.092-.022.245 0 .595.06.977.688 1.778 1.51 1.778.565 0 1.007-.309 1.386-.69l.144.145c-.472.627-1.058 1.16-1.9 1.16-1.634 0-1.963-1.581-1.963-2.239 0-2.014 1.357-2.61 2.075-2.61.832 0 1.727.524 1.737 1.613 0 .063 0 .124-.01.185l-.093.062h-2.886zM43.91 10.431h.278c.288 0 .492 0 .492-.34V7.205c0-.318-.38-.38-.534-.463V6.59c.75-.32 1.162-.586 1.255-.586.06 0 .091.03.091.133v.924h.022c.256-.4.688-1.057 1.314-1.057.257 0 .586.173.586.544 0 .277-.194.525-.483.525-.32 0-.32-.248-.678-.248-.175 0-.75.236-.75.854v2.412c0 .34.205.34.493.34h.575v.268c-.565-.01-.996-.02-1.438-.02-.421 0-.853.01-1.223.02v-.268M47.865 9.27c.135.678.546 1.254 1.296 1.254.605 0 .83-.37.83-.73 0-1.211-2.238-.822-2.238-2.475 0-.577.463-1.315 1.593-1.315.329 0 .77.092 1.17.297l.073 1.048h-.236c-.103-.647-.463-1.018-1.12-1.018-.412 0-.801.238-.801.679 0 1.203 2.383.832 2.383 2.446 0 .677-.545 1.397-1.767 1.397a2.71 2.71 0 0 1-1.254-.349l-.113-1.182.184-.051M60.092 5.386h-.256c-.196-1.201-1.049-1.684-2.198-1.684-1.183 0-2.9.79-2.9 3.256 0 2.077 1.482 3.566 3.063 3.566 1.018 0 1.86-.698 2.066-1.777l.235.06-.235 1.501c-.431.268-1.594.545-2.272.545-2.404 0-3.923-1.552-3.923-3.863 0-2.107 1.879-3.618 3.893-3.618.833 0 1.634.268 2.425.545l.102 1.47M60.462 10.431h.196c.288 0 .494 0 .494-.34v-5.72c0-.669-.155-.69-.545-.803v-.164a6.51 6.51 0 0 0 1.058-.443c.113-.06.195-.113.226-.113.062 0 .082.062.082.145v7.098c0 .34.227.34.514.34h.175v.268c-.348 0-.709-.02-1.08-.02-.368 0-.738.01-1.12.02v-.268M67.06 10.133c0 .186.112.195.287.195.123 0 .278-.01.412-.01v.217c-.443.041-1.285.256-1.481.318l-.051-.03V9.99c-.616.503-1.09.862-1.82.862-.554 0-1.129-.359-1.129-1.221V7c0-.267-.041-.525-.616-.575V6.23c.371-.012 1.19-.072 1.325-.072.114 0 .114.072.114.297v2.65c0 .309 0 1.193.894 1.193.348 0 .81-.268 1.242-.625V6.907c0-.205-.493-.317-.862-.421V6.3c.925-.062 1.5-.143 1.603-.143.082 0 .082.072.082.185v3.79M69.104 9.538c0 .39.37 1.047 1.059 1.047 1.1 0 1.562-1.08 1.562-1.994 0-1.109-.843-2.033-1.644-2.033-.382 0-.7.247-.977.484v2.496zm0-2.796c.41-.348.967-.738 1.531-.738 1.192 0 1.911 1.038 1.911 2.156 0 1.346-.986 2.693-2.457 2.693-.76 0-1.16-.247-1.427-.359l-.308.235-.215-.112c.09-.606.142-1.203.142-1.83V4.372c0-.669-.153-.69-.543-.803v-.164a6.435 6.435 0 0 0 1.058-.443c.112-.06.195-.113.227-.113.061 0 .08.062.08.145v3.749zM24.777 16.672h.079c.2 0 .413-.027.413-.318v-2.929c0-.291-.213-.318-.413-.318h-.079v-.17c.219 0 .554.023.828.023.28 0 .615-.022.877-.022v.169h-.078c-.2 0-.414.027-.414.318v2.929c0 .291.213.318.414.318h.078v.168c-.268 0-.604-.021-.882-.021-.275 0-.604.021-.823.021v-.168"/><path d="M26.458 16.817v-.119h-.054c-.2 0-.438-.036-.439-.344v-2.929c.001-.308.24-.343.44-.343h.053v-.12c-.258 0-.582.023-.853.023-.265 0-.586-.021-.803-.022v.119h.054c.199 0 .437.035.437.343v2.929c0 .308-.238.344-.437.344h-.054v.12c.217-.004.533-.024.798-.024.272 0 .595.021.858.023zm.024.047c-.27 0-.605-.022-.882-.022-.275 0-.603.022-.823.022h-.024v-.215h.103c.202-.005.387-.022.388-.295v-2.929c0-.273-.186-.291-.388-.295h-.103v-.215h.024c.22 0 .555.021.828.021.278 0 .613-.021.877-.021h.025v.215h-.103c-.203.004-.388.022-.39.295v2.929c.002.273.187.29.39.295h.103v.215h-.025zM30.323 15.74l.012-.012v-2.096c0-.458-.32-.525-.488-.525h-.122v-.17c.262 0 .52.023.783.023.229 0 .459-.022.687-.022v.169h-.083c-.235 0-.499.044-.499.709v2.544c0 .196.007.391.034.564h-.212l-2.88-3.208v2.303c0 .487.095.653.525.653h.096v.168c-.24 0-.481-.021-.722-.021-.25 0-.508.021-.76.021v-.168h.079c.386 0 .504-.26.504-.709V13.61a.501.501 0 0 0-.51-.502h-.072v-.17c.211 0 .43.023.642.023.168 0 .33-.022.498-.022l2.488 2.802"/><path d="M30.31 15.728v-.002l-.004-.004.004.006zm.013.012l.018-.017-.018.017zm.112 1.16h.185a3.64 3.64 0 0 1-.03-.54v-2.544c0-.671.28-.734.522-.734h.06v-.12c-.222.002-.442.023-.664.023-.256 0-.506-.021-.759-.022v.119h.098c.173 0 .511.077.511.55l-.006 2.113-.012.01-.02.019-2.485-2.811c-.166 0-.328.022-.498.022-.205 0-.416-.021-.618-.022l-.001.119h.05c.262 0 .532.2.532.527v2.354c0 .448-.125.733-.527.735l-.054-.002v.121c.242-.003.49-.023.735-.023.234 0 .466.02.697.023v-.119h-.07c-.44-.002-.55-.193-.55-.68v-2.365l2.904 3.247zm.212.05l-.23-.009-2.838-3.162v2.24c.007.486.081.624.501.63h.121v.215h-.025c-.242 0-.483-.022-.722-.022-.25 0-.506.022-.76.022h-.025v-.215h.104c.37-.003.475-.24.48-.686V13.61a.48.48 0 0 0-.486-.48h-.098v-.214h.025c.214 0 .432.021.643.021.166 0 .328-.021.517-.013l2.456 2.765v-2.056c-.003-.445-.299-.498-.463-.502H29.7v-.215h.025c.263 0 .521.021.783.021.227 0 .456-.021.687-.021h.025v.215h-.108c-.232.007-.468.028-.474.686v2.544c0 .195.005.39.033.561l.004.028h-.028zM32.032 13.218c-.42 0-.435.1-.52.508h-.167c.023-.156.05-.312.068-.475.022-.156.033-.313.033-.475h.134c.045.168.185.162.336.162H34.8c.151 0 .291-.005.302-.173l.134.023c-.02.15-.044.3-.06.452-.013.15-.013.302-.013.453l-.166.063c-.012-.208-.04-.538-.415-.538h-.916v2.974c0 .431.196.48.464.48h.106v.168c-.218 0-.61-.021-.912-.021-.334 0-.726.021-.945.021v-.168h.106c.31 0 .464-.027.464-.468v-2.986h-.917"/><path d="M34.237 16.864c-.22 0-.612-.022-.913-.022-.334 0-.724.022-.945.022h-.023v-.215h.13c.308-.008.432-.011.439-.445v-2.963h-.893v-.047h.942v3.01c0 .448-.18.494-.489.494h-.082v.118c.221-.002.597-.022.921-.022.293 0 .666.02.887.022v-.118h-.081c-.27 0-.49-.066-.49-.506v-2.998h.942c.376 0 .425.319.437.526l.122-.044c0-.145 0-.292.01-.44.015-.142.036-.285.057-.428l-.085-.014c-.027.162-.183.17-.323.169H31.886c-.13 0-.274-.006-.324-.162h-.093c0 .155-.011.304-.033.454-.016.153-.04.3-.062.447h.12c.074-.388.121-.515.538-.508v.047c-.413.009-.404.078-.496.49l-.003.02h-.216l.003-.029c.022-.156.052-.312.068-.475.023-.155.034-.31.034-.47v-.025h.177l.004.018c.038.14.14.142.284.145H34.8c.155-.003.269-.006.279-.152l.001-.026.025.005.158.025-.003.024c-.022.15-.044.3-.06.45-.012.15-.012.301-.012.452v.017l-.016.007-.198.072v-.033c-.016-.21-.038-.515-.392-.515h-.892v2.95c.006.423.173.452.44.458h.13v.215h-.023M35.415 16.672h.078c.201 0 .413-.027.413-.318v-2.929c0-.291-.212-.318-.413-.318h-.078v-.17c.34 0 .924.023 1.392.023.47 0 1.05-.022 1.43-.022-.01.24-.004.61.013.856l-.17.045c-.026-.363-.093-.654-.68-.654h-.776v1.463h.663c.336 0 .41-.188.442-.49h.167a13.3 13.3 0 0 0 0 1.29l-.167.034c-.032-.335-.049-.553-.436-.553h-.669v1.302c0 .364.323.364.68.364.672 0 .967-.045 1.135-.682l.157.039c-.073.297-.14.591-.19.888-.358 0-1.001-.021-1.505-.021-.502 0-1.168.021-1.486.021v-.168"/><path d="M38.385 16.816c.049-.282.112-.565.182-.846l-.11-.028c-.168.626-.492.681-1.153.677-.352 0-.704 0-.706-.388v-1.326h.695c.39-.005.43.231.457.55l.121-.025a13.12 13.12 0 0 1 0-1.25h-.12c-.031.293-.122.497-.464.493h-.69V13.16h.803c.581-.003.678.297.702.647l.12-.032a9.41 9.41 0 0 1-.01-.812c-.38 0-.946.022-1.405.022-.46 0-1.026-.021-1.368-.022v.119h.054c.2 0 .438.035.439.343v2.929c-.001.308-.24.342-.439.344h-.054v.118c.325 0 .972-.022 1.462-.022.494 0 1.123.021 1.484.022zm.02.048c-.358 0-1.001-.023-1.504-.023-.502 0-1.167.023-1.486.023h-.025v-.215h.103c.202-.004.387-.022.389-.295v-2.929c-.002-.272-.187-.29-.389-.295h-.103v-.215h.025c.34 0 .924.021 1.392.021.469 0 1.05-.021 1.43-.021h.025v.024a8.963 8.963 0 0 0 .01.853v.02l-.018.006-.196.051v-.03c-.034-.361-.082-.625-.658-.63h-.754v1.414h.641c.323-.001.38-.167.418-.468l.002-.022h.215v.025a12.195 12.195 0 0 0 0 1.29v.02l-.02.005-.195.038-.002-.026c-.039-.341-.04-.528-.412-.533h-.647v1.279c.001.34.294.338.658.34.674-.004.943-.037 1.112-.665l.005-.023.024.005.179.047-.005.023c-.073.295-.139.591-.19.886l-.003.02h-.02zM40.066 14.828h.274c.559 0 .86-.212.86-.872 0-.496-.319-.816-.816-.816-.169 0-.24.018-.318.022v1.666zm-.715-1.297c0-.409-.224-.424-.397-.424h-.102v-.17c.179 0 .526.023.868.023.334 0 .603-.022.9-.022.702 0 1.33.19 1.33.984 0 .503-.335.81-.777.986l.956 1.429c.156.237.267.303.542.335v.168c-.185 0-.363-.021-.548-.021-.174 0-.353.021-.525.021-.43-.563-.8-1.167-1.164-1.811h-.368v1.196c0 .432.2.447.458.447h.102v.168c-.32 0-.645-.021-.963-.021-.268 0-.53.021-.811.021v-.168h.102c.206 0 .397-.093.397-.3V13.53z"/><path d="M40.34 14.804c.553-.006.832-.198.837-.847-.003-.488-.307-.791-.793-.794-.152 0-.223.014-.294.02v1.62h.25zm-.275.047h-.024V13.14l.021-.002c.077-.007.152-.021.322-.021.509 0 .84.33.84.84-.001.666-.321.894-.884.894h-.275zm0 .154h.383l.006.012c.364.643.732 1.246 1.144 1.8.17 0 .35-.023.523-.023.179 0 .352.02.525.022v-.123c-.262-.032-.385-.11-.537-.342l-.973-1.456.028-.011c.437-.173.76-.47.762-.963-.001-.774-.604-.955-1.306-.958-.296 0-.565.022-.9.022-.33 0-.661-.021-.843-.022v.119h.077c.173 0 .42.029.42.449v2.84c0 .225-.21.327-.42.327h-.077v.118c.268 0 .523-.022.785-.022.314 0 .628.021.938.022v-.118h-.076c-.255 0-.483-.032-.483-.473v-1.22h.024zm2.606 1.86c-.188 0-.365-.023-.55-.023-.169 0-.349.022-.543.014a15.798 15.798 0 0 1-1.158-1.803h-.33v1.172c.006.421.175.417.434.424h.125v.215h-.025c-.32 0-.645-.022-.962-.022-.267 0-.529.022-.81.022h-.023v-.215h.125c.2-.002.37-.09.371-.278v-2.84c-.004-.396-.198-.395-.371-.401h-.125v-.215h.023c.182 0 .527.021.868.021.333 0 .602-.021.9-.021.703 0 1.353.196 1.355 1.006 0 .505-.335.821-.765.996l.939 1.406c.156.233.252.291.525.326l.02.002v.213h-.023zM46.466 15.74l.01-.012v-2.096c0-.458-.318-.525-.485-.525h-.123v-.17c.264 0 .519.023.783.023.23 0 .458-.022.688-.022v.169h-.083c-.236 0-.498.044-.498.709v2.544c0 .196.004.391.032.564h-.211l-2.88-3.208v2.303c0 .487.096.653.526.653h.095v.168c-.24 0-.481-.021-.721-.021-.252 0-.51.021-.76.021v-.168h.076c.387 0 .504-.26.504-.709V13.61a.5.5 0 0 0-.508-.502h-.072v-.17c.21 0 .43.023.642.023.167 0 .33-.022.498-.022l2.487 2.802"/><path d="M46.453 15.728v-.002l-.004-.004.004.006zm.013.012l.018-.017-.018.017zm.113 1.16h.182a4 4 0 0 1-.028-.54v-2.544c0-.671.283-.733.523-.734h.058v-.12c-.22.002-.441.023-.663.023-.256 0-.507-.021-.758-.022v.119h.098c.172 0 .511.077.511.55l-.007 2.113-.01.01-.02.02-2.486-2.812c-.167 0-.33.022-.498.022-.207 0-.416-.021-.619-.022v.119h.049c.262 0 .532.2.532.527v2.353c0 .45-.127.734-.528.736h-.053v.118c.242-.002.49-.022.737-.022.233 0 .465.02.697.022v-.118h-.07c-.441 0-.551-.192-.552-.68v-2.365l2.905 3.247zm.21.05l-.229-.009-2.837-3.162v2.24c.007.487.08.624.502.63h.119v.215h-.024c-.242 0-.482-.023-.721-.023-.25 0-.51.023-.76.023h-.027v-.215h.103c.37-.002.476-.24.48-.687V13.61a.478.478 0 0 0-.484-.48h-.099v-.214h.027c.212 0 .432.021.642.021.165 0 .326-.021.514-.015l2.458 2.767v-2.056c0-.445-.3-.5-.462-.502h-.148v-.215h.025c.265 0 .522.021.783.021.228 0 .457-.021.688-.021h.023v.215h-.106c-.23.006-.469.028-.475.686v2.544c0 .195.005.388.033.561l.003.028h-.027zM49.055 13.564h-.012l-.52 1.583h1.045l-.513-1.583zm-.816 2.477c-.057.19-.125.337-.125.436 0 .168.237.195.42.195h.063v.168a13.7 13.7 0 0 0-.678-.021c-.201 0-.402.01-.603.021v-.168h.033c.218 0 .403-.129.485-.363l.896-2.565c.072-.207.174-.486.207-.694.179-.061.403-.173.509-.24.017-.006.026-.011.044-.011.016 0 .028 0 .04.017.016.044.032.095.05.14l1.029 2.924c.066.195.133.402.206.57.067.156.185.222.37.222h.033v.168a16.989 16.989 0 0 0-.771-.021c-.274 0-.554.01-.838.021v-.168h.061c.128 0 .346-.02.346-.16 0-.074-.05-.225-.113-.404l-.217-.649h-1.27l-.177.582z"/><path d="M49.03 13.572l.013-.004-.013.004zm-.474 1.55h.978l-.486-1.498-.492 1.499zm-.067.05l.535-1.632h.03v.024l-.005.002.006-.002v-.024h.016l.531 1.632h-1.113zm1.143 1.642c.276-.009.548-.02.815-.02.26 0 .503.011.746.02v-.116h-.009c-.19.002-.322-.075-.391-.238-.073-.17-.141-.378-.207-.573l-1.03-2.924-.047-.135c-.006-.006-.004-.006-.009-.006h-.01c-.011 0-.018.004-.032.008-.108.069-.333.18-.498.224-.035.212-.135.49-.208.697l-.894 2.567c-.086.242-.281.38-.51.38h-.008v.116c.191-.009.385-.02.579-.02.216 0 .437.011.65.02v-.116h-.034c-.183-.002-.437-.022-.444-.22 0-.112.068-.256.123-.443l.025.006-.025-.007.185-.597H49.7l.224.663c.064.18.115.33.115.411-.009.171-.244.184-.37.187h-.038v.116zm1.584.05c-.25-.01-.502-.023-.77-.023-.273 0-.55.013-.837.023l-.026.002v-.219h.087c.129 0 .32-.028.32-.136.001-.064-.048-.217-.11-.394l-.212-.633h-1.234l-.174.564c-.057.192-.123.34-.123.43.002.136.212.17.398.17h.085v.218l-.025-.002c-.224-.01-.453-.023-.676-.023-.2 0-.402.013-.602.023l-.025.002v-.219h.057c.208 0 .38-.119.461-.346l.896-2.565c.074-.208.174-.486.222-.708.175-.061.4-.173.509-.241.015-.006.03-.013.053-.013a.067.067 0 0 1 .061.033l.051.14 1.03 2.925c.066.195.133.402.205.567.065.15.168.208.347.208h.058v.22l-.026-.003zM51.464 13.218c-.42 0-.436.1-.52.508h-.169c.023-.156.052-.312.068-.475a3.25 3.25 0 0 0 .034-.475h.134c.045.168.185.162.335.162h2.885c.15 0 .29-.005.301-.173l.134.023c-.021.15-.043.3-.06.452-.014.15-.014.302-.014.453l-.166.063c-.01-.208-.039-.538-.413-.538h-.917v2.974c0 .431.196.48.464.48h.105v.168c-.217 0-.608-.021-.91-.021-.335 0-.728.021-.946.021v-.168h.107c.308 0 .465-.027.465-.468v-2.986h-.917"/><path d="M53.665 16.864c-.218 0-.609-.022-.91-.022-.335 0-.725.022-.946.022h-.023v-.215h.13c.308-.008.431-.011.44-.445v-2.963h-.892v-.047h.94v3.01c0 .448-.18.492-.488.494h-.082v.12c.22-.004.596-.024.921-.024.292 0 .666.02.887.023l-.001-.119h-.082c-.269-.002-.486-.066-.487-.506v-2.998h.94c.377 0 .425.319.436.526l.122-.044c0-.145 0-.292.011-.438.016-.144.038-.287.057-.43l-.083-.014c-.027.162-.184.17-.324.169h-2.913c-.133 0-.275-.006-.325-.164H50.9a3.326 3.326 0 0 1-.034.456c-.015.154-.043.3-.064.447h.12c.074-.388.122-.516.54-.508v.047c-.414.008-.405.078-.496.49l-.004.02h-.216l.004-.029c.022-.156.05-.312.067-.473.023-.157.034-.313.034-.473v-.024h.176l.005.018c.04.14.143.142.285.145h2.913c.154-.003.268-.006.277-.152l.001-.026.027.005.16.025-.006.024c-.024.15-.044.3-.06.45-.011.15-.011.301-.011.452v.017l-.018.007-.198.072v-.033c-.014-.21-.037-.515-.39-.515h-.893v2.95c.006.423.173.452.439.458h.13v.215h-.024M54.873 16.672h.078c.202 0 .414-.027.414-.318v-2.929c0-.291-.212-.318-.414-.318h-.078v-.17c.218 0 .553.023.827.023.279 0 .615-.022.879-.022v.169H56.5c-.202 0-.416.027-.416.318v2.929c0 .291.214.318.416.318h.079v.168c-.27 0-.604-.021-.884-.021-.275 0-.604.021-.822.021v-.168"/><path d="M56.553 16.816v-.118H56.5c-.2 0-.438-.036-.438-.344v-2.929c0-.308.238-.343.438-.343h.053v-.12c-.258.002-.58.023-.853.023-.266 0-.587-.021-.803-.022v.119h.054c.198 0 .437.035.437.343v2.929c0 .308-.239.344-.437.344h-.054v.118c.216-.003.531-.022.798-.022.27 0 .595.02.858.022zm.026.048c-.27 0-.605-.023-.884-.023-.274 0-.604.023-.822.023h-.024v-.215h.102c.202-.004.387-.022.388-.295v-2.929c-.001-.272-.186-.291-.388-.295h-.102v-.215h.024c.218 0 .554.021.827.021.279 0 .614-.021.879-.021h.022v.215h-.1c-.205.004-.39.023-.391.295v2.929c.002.273.186.291.39.295h.101v.215h-.022zM58.892 16.679c1.086 0 1.273-.957 1.273-1.771 0-.818-.44-1.807-1.368-1.807-.978 0-1.269.872-1.269 1.62 0 1.001.459 1.958 1.364 1.958zm-.084-3.824c1.192 0 2.142.738 2.142 1.929 0 1.286-.923 2.14-2.113 2.14-1.187 0-2.09-.804-2.09-2.007 0-1.161.898-2.062 2.06-2.062z"/><path d="M57.503 14.721c.002-.752.297-1.645 1.294-1.645.95.002 1.392 1.01 1.393 1.832 0 .814-.192 1.793-1.298 1.793v-.046c1.064 0 1.248-.933 1.25-1.747 0-.811-.437-1.782-1.345-1.783-.959 0-1.243.852-1.245 1.596.001.997.456 1.931 1.34 1.934v.046c-.928 0-1.387-.973-1.39-1.98zm-.783.196a2.062 2.062 0 0 1 2.088-2.087v.049c-1.15 0-2.04.888-2.04 2.038.002 1.19.894 1.982 2.069 1.983 1.178-.001 2.087-.843 2.09-2.117-.001-1.176-.937-1.903-2.12-1.904v-.05c1.201.003 2.164.749 2.166 1.954 0 1.3-.934 2.163-2.136 2.166-1.196-.003-2.114-.817-2.117-2.032zM64.718 15.74l.01-.012v-2.096c0-.458-.318-.525-.488-.525h-.12v-.17c.261 0 .52.023.781.023.231 0 .46-.022.688-.022v.169h-.083c-.236 0-.499.044-.499.709v2.544c0 .196.007.391.034.564h-.213l-2.878-3.208v2.303c0 .487.094.653.526.653h.094v.168c-.24 0-.48-.021-.72-.021-.252 0-.51.021-.762.021v-.168h.079c.387 0 .502-.26.502-.709V13.61a.5.5 0 0 0-.509-.502h-.072v-.17c.213 0 .43.023.643.023.168 0 .33-.022.497-.022l2.49 2.802"/><path d="M64.703 15.728v-.002l-.004-.004.004.006zm.015.012l.018-.017-.018.017zm.11 1.16h.185a3.778 3.778 0 0 1-.03-.54v-2.544c0-.672.283-.733.523-.734h.06v-.12c-.222.002-.443.023-.666.023-.253 0-.503-.021-.757-.022v.119h.097c.175 0 .512.078.512.55l-.007 2.113-.01.01-.017.02-2.49-2.812c-.165 0-.328.022-.497.022-.206 0-.416-.021-.619-.022v.119h.048c.263 0 .534.2.534.527v2.354c0 .448-.125.733-.527.735h-.055v.118c.243-.002.491-.022.737-.022.233 0 .466.02.697.022v-.118h-.072c-.44 0-.549-.192-.549-.68v-2.365l2.903 3.247zm.213.05l-.231-.009-2.837-3.162v2.24c.007.487.08.623.5.628h.122v.217h-.025c-.241 0-.482-.022-.72-.022-.251 0-.509.022-.762.022h-.023v-.217h.102c.369 0 .475-.238.478-.684V13.61a.477.477 0 0 0-.485-.48h-.095v-.214h.023c.214 0 .432.021.643.021.166 0 .327-.021.517-.013l2.455 2.765v-2.056c0-.445-.298-.498-.463-.502h-.145v-.215h.025c.262 0 .521.021.78.021.23 0 .457-.021.69-.021h.023v.215h-.107c-.23.007-.468.028-.473.686v2.544c0 .195.005.39.03.561l.005.028h-.027zM67.304 13.564h-.01l-.52 1.583h1.046l-.516-1.583zm-.816 2.477c-.054.19-.122.337-.122.436 0 .168.236.195.418.195h.063v.168a13.623 13.623 0 0 0-.677-.021c-.203 0-.403.01-.603.021v-.168h.031a.507.507 0 0 0 .487-.363l.896-2.565c.073-.207.173-.486.206-.694.179-.061.403-.173.51-.24.016-.006.027-.011.044-.011.016 0 .026 0 .039.017.017.044.033.095.051.14l1.029 2.924c.065.195.134.402.206.57.067.156.185.222.37.222h.033v.168a17.01 17.01 0 0 0-.771-.021c-.275 0-.555.01-.84.021v-.168h.062c.128 0 .347-.02.347-.16 0-.074-.05-.225-.113-.404l-.217-.649H66.67l-.181.582z"/><path d="M67.283 13.572l.01-.004-.01.004zm-.476 1.55h.978l-.487-1.497-.49 1.497zm-.067.048l.538-1.63h.026v.024l-.005.002.005-.002v-.024h.018l.53 1.63H66.74zm1.143 1.645c.275-.01.548-.02.815-.02.26 0 .502.01.745.02v-.117h-.008c-.19 0-.322-.075-.392-.238-.074-.17-.14-.378-.207-.573l-1.028-2.924a4.981 4.981 0 0 1-.048-.133c-.005-.008-.005-.008-.01-.008h-.009c-.012 0-.018.004-.033.008-.108.068-.33.18-.498.224-.033.212-.136.49-.207.697l-.895 2.567c-.086.242-.28.38-.51.38h-.009v.116c.193-.009.387-.02.581-.02.216 0 .436.011.653.02v-.116h-.039c-.18-.002-.436-.022-.443-.221.001-.11.07-.254.125-.442l.022.006-.022-.007.184-.597h1.304l.223.663c.063.18.113.33.113.411-.009.171-.243.184-.371.187h-.036v.117zm1.584.05c-.251-.01-.504-.023-.77-.023-.273 0-.553.013-.838.022l-.025.002v-.217h.085c.13 0 .323-.03.324-.138 0-.064-.05-.216-.113-.394l-.212-.633h-1.234l-.172.564c-.056.192-.124.34-.122.429 0 .137.21.172.394.172h.086v.217l-.025-.002c-.223-.009-.453-.022-.675-.022-.201 0-.401.013-.603.022l-.024.002v-.217h.055c.209-.002.384-.122.465-.348l.895-2.565c.071-.208.172-.486.22-.708.177-.061.402-.173.51-.241a.139.139 0 0 1 .053-.012.064.064 0 0 1 .062.033c.016.044.032.094.05.139l1.029 2.925c.066.195.134.402.207.568.066.148.166.207.346.21h.057v.216l-.025-.002zM70.878 16.293c0 .224.156.29.334.313.23.017.48.017.74-.01a.792.792 0 0 0 .535-.303c.09-.124.138-.28.174-.403h.162c-.062.32-.14.632-.208.95-.492 0-.984-.021-1.475-.021-.492 0-.984.021-1.477.021v-.168h.077c.203 0 .421-.027.421-.374v-2.873c0-.291-.218-.318-.42-.318h-.078v-.17c.297 0 .588.023.884.023.285 0 .565-.022.85-.022v.169h-.14c-.212 0-.379.006-.379.302v2.884"/><path d="M72.596 16.816c.065-.303.138-.6.197-.902h-.115a1.22 1.22 0 0 1-.173.393.82.82 0 0 1-.554.312 3.816 3.816 0 0 1-.428.022c-.107 0-.214-.004-.315-.01-.18-.022-.357-.099-.355-.338v-2.884c0-.311.195-.327.404-.327h.116v-.12c-.275.002-.549.023-.826.023-.29 0-.574-.021-.86-.022v.119h.053c.2 0 .444.035.444.342v2.874c0 .362-.243.4-.444.4h-.053v.118c.482 0 .967-.022 1.453-.022.486 0 .97.021 1.456.022zm.02.048c-.494 0-.985-.022-1.476-.022-.492 0-.984.022-1.478.022h-.022v-.215h.1c.203-.005.396-.019.398-.351v-2.874c-.002-.271-.193-.29-.398-.294h-.1v-.215h.022c.298 0 .59.021.885.021.284 0 .564-.021.85-.021h.023v.215h-.163c-.217.006-.353-.004-.357.279v2.884c.002.208.138.264.314.29a4.466 4.466 0 0 0 .734-.012.786.786 0 0 0 .52-.291c.086-.12.134-.274.168-.396l.005-.02h.211l-.006.032c-.062.319-.14.631-.206.95l-.006.018h-.019zM15.544 10.215a5.675 5.675 0 0 0-3.641-5.29v10.58a5.675 5.675 0 0 0 3.64-5.29zm-7.7 5.288V4.925a5.678 5.678 0 0 0-3.637 5.29 5.676 5.676 0 0 0 3.637 5.288zM9.874 1.27a8.944 8.944 0 0 0 0 17.885 8.944 8.944 0 0 0 8.944-8.941A8.946 8.946 0 0 0 9.875 1.27zM9.855 20C4.447 20.026 0 15.647 0 10.317 0 4.492 4.448.462 9.853.463h2.533c5.34 0 10.215 4.027 10.215 9.854 0 5.328-4.875 9.683-10.215 9.683H9.853z"/></g></svg>