<svg width="67" height="25" xmlns="http://www.w3.org/2000/svg"><g fill="none" fill-rule="evenodd"><circle fill="#FFF" cx="12.5" cy="12.5" r="12.5"/><path d="M9.267 17.222c-.466 0-.885-.088-1.258-.263a2.78 2.78 0 0 1-.95-.725 3.26 3.26 0 0 1-.6-1.093 4.306 4.306 0 0 1-.209-1.364v-.263c0-.562.074-1.07.221-1.525.148-.455.35-.841.606-1.16.256-.318.558-.564.906-.737.347-.174.721-.26 1.121-.26.458 0 .856.086 1.194.26.338.173.617.416.839.728.221.312.386.683.495 1.113.109.43.163.902.163 1.416v.685H7.677c.02.277.07.532.154.764.084.233.197.434.341.603a1.49 1.49 0 0 0 1.177.543c.35 0 .653-.079.911-.237.258-.158.483-.375.673-.652l.763.824a2.862 2.862 0 0 1-.376.497c-.15.16-.324.303-.524.428a2.821 2.821 0 0 1-1.529.418zm-.169-6.106c-.388 0-.702.154-.94.461-.24.308-.392.736-.458 1.285h2.697v-.119a3.27 3.27 0 0 0-.09-.61 1.645 1.645 0 0 0-.224-.52 1.124 1.124 0 0 0-.394-.362 1.196 1.196 0 0 0-.59-.135zm3.6 5.974V7.5h2.907c.458 0 .87.052 1.235.155.365.103.673.26.926.47.252.212.445.48.58.808.133.327.2.714.2 1.162 0 .44-.105.835-.314 1.186-.21.351-.517.623-.92.817.244.074.457.183.637.326.18.142.33.31.449.504.118.193.206.406.265.639.058.232.087.474.087.724 0 .461-.067.866-.2 1.215-.135.35-.33.641-.583.876a2.476 2.476 0 0 1-.926.53 3.96 3.96 0 0 1-1.232.178h-3.11zm1.474-4.327v2.997h1.637c.24 0 .453-.035.637-.105.185-.07.34-.17.463-.3a1.25 1.25 0 0 0 .28-.465c.062-.18.093-.38.093-.599 0-.474-.11-.847-.332-1.12-.221-.272-.58-.408-1.077-.408h-1.701zm0-1.225h1.444c.459 0 .817-.118 1.075-.353s.387-.567.387-.998c0-.474-.119-.816-.358-1.027-.239-.21-.61-.316-1.115-.316h-1.433v2.694z" fill="#0B79BF"/><circle fill="#BAD1E7" cx="26.25" cy="2.5" r="2.5"/><path d="M33.424 17.614c-.456 0-.866-.076-1.23-.228a2.709 2.709 0 0 1-.93-.627 2.742 2.742 0 0 1-.586-.945 3.331 3.331 0 0 1-.205-1.18v-.227c0-.486.072-.926.216-1.319a3.01 3.01 0 0 1 .593-1.003 2.61 2.61 0 0 1 .886-.638c.34-.15.705-.225 1.096-.225.448 0 .838.075 1.168.225.33.15.604.36.82.63.217.27.378.59.484.963.107.372.16.78.16 1.224v.593h-4.028c.02.239.07.46.151.66.082.202.193.376.334.522a1.532 1.532 0 0 0 1.15.47c.342 0 .64-.069.892-.205a2.09 2.09 0 0 0 .658-.564l.746.712a2.53 2.53 0 0 1-.88.8 2.95 2.95 0 0 1-.664.262c-.246.067-.524.1-.831.1zm-.166-5.28c-.38 0-.686.132-.92.398-.233.266-.382.636-.447 1.11h2.638v-.102a2.525 2.525 0 0 0-.088-.527 1.343 1.343 0 0 0-.22-.45 1.06 1.06 0 0 0-.384-.313 1.297 1.297 0 0 0-.579-.117zM36.77 17.5V9.206h2.843c.448 0 .85.044 1.208.134.357.089.659.225.905.407.247.182.436.415.567.698.131.283.197.618.197 1.005 0 .38-.103.722-.308 1.026-.205.303-.505.539-.9.706.24.065.447.159.624.282.176.123.323.269.438.436.116.167.203.351.26.552.057.202.085.41.085.627 0 .399-.065.749-.196 1.051a1.98 1.98 0 0 1-.57.758c-.249.203-.55.356-.906.458a4.344 4.344 0 0 1-1.205.154H36.77zm1.442-3.743v2.592h1.6c.236 0 .444-.03.624-.09.18-.062.331-.148.453-.26.122-.112.213-.246.273-.402.061-.155.092-.328.092-.518 0-.41-.109-.733-.325-.968-.217-.236-.568-.354-1.054-.354h-1.663zm0-1.06h1.412c.448 0 .799-.1 1.051-.304.253-.203.38-.49.38-.863 0-.41-.118-.706-.351-.889-.234-.182-.597-.273-1.091-.273h-1.401v2.33zm9.185 4.2a1.967 1.967 0 0 1-.717.529c-.285.125-.623.188-1.014.188-.304 0-.58-.043-.83-.128a1.605 1.605 0 0 1-.64-.405 1.87 1.87 0 0 1-.416-.712 3.264 3.264 0 0 1-.148-1.045v-3.988h1.384v4c0 .223.027.408.08.555a.95.95 0 0 0 .213.353.74.74 0 0 0 .311.188c.118.036.241.054.37.054.357 0 .646-.065.866-.194.22-.129.386-.305.496-.53v-4.426h1.384V17.5h-1.305l-.034-.604zm4.948-.388c.167 0 .323-.026.47-.077.146-.051.273-.124.381-.217.109-.093.196-.204.262-.333.067-.129.104-.27.111-.421h1.305a1.975 1.975 0 0 1-.22.837 2.28 2.28 0 0 1-.54.686c-.226.196-.49.35-.79.462-.3.112-.62.168-.962.168-.475 0-.888-.082-1.24-.245a2.483 2.483 0 0 1-.876-.667 2.787 2.787 0 0 1-.522-.985 4.104 4.104 0 0 1-.17-1.196v-.2c0-.421.056-.82.17-1.196.114-.376.288-.705.522-.988.233-.283.525-.506.874-.67.35-.163.761-.245 1.236-.245.372 0 .711.057 1.017.171.306.114.568.274.786.479.218.205.39.45.513.735.123.284.19.598.202.94h-1.305a1.436 1.436 0 0 0-.1-.468 1.146 1.146 0 0 0-.624-.65 1.243 1.243 0 0 0-.5-.096c-.281 0-.513.058-.695.174a1.284 1.284 0 0 0-.433.453c-.107.186-.18.399-.22.638-.04.24-.06.48-.06.723v.2c0 .25.02.494.06.732.04.237.113.449.22.635.106.186.25.336.43.45.18.114.413.17.698.17zm5.243-1.652l-.615.632V17.5H55.59V8.75h1.384v5.047l.433-.541 1.703-1.92h1.664l-2.29 2.57 2.535 3.594h-1.601l-1.829-2.643zm7.21.968a.775.775 0 0 0-.05-.276.564.564 0 0 0-.19-.24 1.532 1.532 0 0 0-.402-.207 4.67 4.67 0 0 0-.675-.183 5.999 5.999 0 0 1-.902-.256 2.783 2.783 0 0 1-.698-.373 1.619 1.619 0 0 1-.453-.516 1.4 1.4 0 0 1-.163-.683c0-.25.056-.49.166-.715a1.78 1.78 0 0 1 .475-.595c.207-.171.458-.307.752-.408.295-.1.624-.15.989-.15.383 0 .728.05 1.034.15.305.1.564.24.777.416.213.177.375.385.487.624.112.24.168.497.168.775H64.73a.907.907 0 0 0-.068-.345.86.86 0 0 0-.205-.3.992.992 0 0 0-.34-.207 1.318 1.318 0 0 0-.47-.077c-.174 0-.326.022-.455.066-.13.043-.236.1-.322.17a.672.672 0 0 0-.253.539c0 .102.019.194.057.273.038.08.105.152.202.217.097.064.227.124.39.18.163.054.368.108.615.162.357.076.677.165.96.267.283.103.522.228.718.376.195.148.345.323.447.524.103.202.154.44.154.718 0 .274-.059.524-.177.752a1.733 1.733 0 0 1-.504.59 2.446 2.446 0 0 1-.789.384c-.307.091-.65.137-1.025.137-.422 0-.795-.06-1.12-.18a2.567 2.567 0 0 1-.817-.47 1.958 1.958 0 0 1-.499-.657 1.784 1.784 0 0 1-.168-.75h1.345c.011.19.055.35.13.479a.96.96 0 0 0 .291.313c.118.08.251.138.4.174.147.036.3.054.455.054.364 0 .642-.07.832-.208a.644.644 0 0 0 .284-.544z" fill="#FFF"/></g></svg>