<svg width="76" height="20" xmlns="http://www.w3.org/2000/svg"><g fill-rule="nonzero" fill="none"><path d="M74.142 8.342a7.476 7.476 0 0 1-1.404.66 6.649 6.649 0 0 1-1.662.414c-.242.04-.487.074-.74.099h-.008c-2.328.2-4.318-.301-5.454-1.372-.011-.007-.018-.02-.03-.028 0 .042 0 .083-.006.128.005.477.182.936.5 1.292.922 1.06 2.697 1.638 4.76 1.67 1.375.009 2.63-.25 3.59-.712.453-.21.86-.507 1.2-.875.323-.351.51-.808.522-1.286 0-.3-.072-.595-.21-.86-.308.34-.665.633-1.058.87zm-4.058-1.464c-2.176.167-4.051-.24-5.216-1.168.035.434.209.845.496 1.173.921 1.06 2.698 1.635 4.76 1.67 1.376.008 2.63-.25 3.589-.713a3.735 3.735 0 0 0 1.2-.875c.322-.352.506-.807.52-1.283 0-.373-.112-.738-.32-1.048-.298.399-1.581 1.982-5.029 2.244zm.063-.98c1.376.009 2.63-.248 3.587-.713a3.733 3.733 0 0 0 1.204-.875 1.884 1.884 0 0 0 .021-2.577C74.035.672 72.261.098 70.198.065c-1.375-.01-2.629.247-3.587.71-.455.21-.864.507-1.203.875a1.886 1.886 0 0 0-.022 2.58c.92 1.059 2.698 1.634 4.76 1.668zM66.13 1.895c.5-.612 2.06-1.212 3.881-1.178 1.219.008 2.312.268 3.05.645a2.5 2.5 0 0 1 .813.598.707.707 0 0 1-.008 1.035c-.499.613-2.06 1.21-3.883 1.179-1.218-.01-2.31-.27-3.051-.65a2.6 2.6 0 0 1-.814-.598.808.808 0 0 1-.221-.523.795.795 0 0 1 .233-.508z" fill="#BAD1E7"/><path d="M18.924 7.264c-.489-.562-1.18-.844-2.074-.845h-4.08l-.305 1.546h4.08c.388-.021.762.145 1.006.446.24.312.327.716.234 1.098l-.058.264-.02.183h-3.783a3.784 3.784 0 0 0-2.43.874 3.682 3.682 0 0 0-1.35 2.215l-.04.163c-.19.893-.045 1.632.436 2.216.48.584 1.169.875 2.063.874h5.341l1.448-6.866c.178-.883.022-1.605-.468-2.168zm-2.22 7.49h-3.776a1.272 1.272 0 0 1-1.022-.447c-.251-.298-.33-.664-.234-1.098l.04-.162c.084-.438.327-.83.682-1.098a1.899 1.899 0 0 1 1.21-.448h3.76l-.66 3.252zm11.398-8.335l-1.728 8.314h-3.897a1.27 1.27 0 0 1-1.022-.448c-.252-.297-.329-.663-.233-1.098l1.392-6.767h-1.56L19.65 13.19c-.19.894-.04 1.633.448 2.216.488.582 1.18.874 2.073.875h3.922l-.121.568c-.102.432-.35.815-.701 1.086a1.85 1.85 0 0 1-1.19.455H18.74l-.332 1.547h5.341a3.716 3.716 0 0 0 2.399-.894 3.839 3.839 0 0 0 1.382-2.195L29.69 6.419h-1.588zM44.527 16.299h-5.34c-.895 0-1.583-.291-2.063-.874-.48-.583-.626-1.321-.438-2.216l.041-.162a3.68 3.68 0 0 1 1.341-2.216 3.783 3.783 0 0 1 2.43-.874h3.78l.02-.183.061-.264a1.299 1.299 0 0 0-.234-1.098 1.212 1.212 0 0 0-1.007-.446h-4.392l.305-1.546h4.399c.893 0 1.584.282 2.072.845s.644 1.282.468 2.159l-1.443 6.875zm-1.24-1.544l.65-3.253h-3.76c-.443.004-.87.162-1.209.448-.355.27-.597.66-.682 1.098l-.04.162c-.095.434-.017.8.234 1.098.253.298.63.463 1.022.447h3.785zM54.78 13.657a3.086 3.086 0 0 1-1.364 2.012 4.048 4.048 0 0 1-2.318.67h-5.284l.322-1.545h5.286c1.043 0 1.639-.378 1.788-1.136l.085-.363c.163-.757-.278-1.136-1.321-1.136h-2.377c-.881 0-1.559-.223-2.032-.67-.542-.488-.725-1.159-.55-2.012l.083-.366c.16-.829.652-1.556 1.363-2.012a4.053 4.053 0 0 1 2.317-.67h5.305l-.306 1.545H50.47c-1.043 0-1.647.379-1.809 1.136l-.08.366c-.152.758.296 1.136 1.342 1.136H52.3c.88 0 1.558.224 2.033.671.53.488.706 1.159.528 2.012l-.081.362zM61.922 16.278h-2.48c-.895 0-1.586-.291-2.073-.875-.487-.583-.636-1.322-.447-2.216l1.097-5.304h-.974l.341-1.591h.976l.732-3.536h1.591l-.732 3.536h3.296l-.341 1.591h-3.296l-1.097 5.304c-.095.433-.02.796.227 1.098.25.302.626.468 1.017.448h2.468l-.305 1.545zM11.818 7.32a3.66 3.66 0 0 1-1.352 2.158c-.728.588-1.52.882-2.375.882H2.764L1.54 16.3H0L2.783 2.91h6.876c.855 0 1.52.294 1.994.882.475.588.627 1.308.455 2.16l-.29 1.367zm-1.543 0l.28-1.364c.094-.428.02-.789-.22-1.083a1.224 1.224 0 0 0-.999-.441h-5.33L3.084 8.84H8.41A1.83 1.83 0 0 0 9.592 8.4c.348-.27.59-.651.686-1.08h-.003z" fill="#FFF"/><path d="M41.818 4.311h-6.477a2.045 2.045 0 0 0-1.916 1.55l-.605 2.954h4.041l-.326 1.57H32.51l-1.25 5.929h-1.568l2.16-10.455a3.952 3.952 0 0 1 3.812-3.099h6.477l-.323 1.551z" fill="#FFF"/></g></svg>