<?xml version="1.0" encoding="UTF-8"?>
<svg width="62px" height="19px" viewBox="0 0 62 19" version="1.1" xmlns="http://www.w3.org/2000/svg" xmlns:xlink="http://www.w3.org/1999/xlink">
    <g id="Visa-Footer" stroke="none" stroke-width="1" fill="none" fill-rule="evenodd">
        <path d="M30.2234444,0.336100001 L26.4142083,18.7123812 L21.8088194,18.7123812 L25.6183194,0.336100001 L30.2234444,0.336100001 Z M49.6010694,12.2017374 L52.0259444,5.3010651 L53.4213889,12.2017374 L49.6010694,12.2017374 Z M54.7397778,18.7123812 L59,18.7123812 L55.2825972,0.336100001 L51.3498611,0.336100001 C50.466625,0.336100001 49.720875,0.866669534 49.3894306,1.68431314 L42.4795,18.7123812 L47.3155278,18.7123812 L48.2760833,15.9682908 L54.1850833,15.9682908 L54.7397778,18.7123812 Z M42.7196389,12.7126966 C42.7391667,7.86239768 36.2205833,7.59520635 36.2659722,5.42853252 C36.2794306,4.76913373 36.8882222,4.06833527 38.2190139,3.88884588 C38.8800556,3.79978211 40.6974583,3.73141817 42.7610694,4.71166444 L43.5690972,0.814919939 C42.4610278,0.399288981 41.0344444,0 39.2608472,0 C34.7087639,0 31.5040972,2.49814361 31.4771806,6.07513009 C31.4484167,8.7203515 33.7643056,10.1960321 35.5099306,11.0757752 C37.3038472,11.9767629 37.9068333,12.5536347 37.8991806,13.3590218 C37.8873056,14.5928411 36.4675833,15.1362118 35.1433889,15.1577288 C32.8272361,15.1955877 31.4835139,14.512493 30.412125,13.997176 L29.5774444,18.0235669 C30.6535833,18.5339813 32.6396111,18.9771212 34.7003194,19 C39.5381944,19 42.7038056,16.5323614 42.7196389,12.7126966 L42.7196389,12.7126966 Z M23.6420556,0.336100001 L16.1798056,18.7123812 L11.3105278,18.7123812 L7.63877778,4.04681833 C7.41552778,3.14337935 7.22183333,2.81299904 6.543375,2.43250333 C5.43768056,1.81259766 3.60893056,1.23082326 2,0.869937929 L2.11004167,0.336100001 L9.94675,0.336100001 C10.9455694,0.336100001 11.8441111,1.02219069 12.0707917,2.20943534 L14.010375,12.8439771 L18.8033889,0.336100001 L23.6420556,0.336100001 L23.6420556,0.336100001 Z" id="vbm_blu01" fill="#FFFFFF"></path>
    </g>
</svg>
