<svg xmlns="http://www.w3.org/2000/svg" width="76.292" height="14.748" viewBox="0 0 76.292 14.748"><path data-name="Path 4" d="M19.094 9.781v.068a3.245 3.245 0 0 0 3.221 3.208h.127a3.249 3.249 0 0 0 3.22-3.211v-.068a3.26 3.26 0 0 0-1.018-2.4 3.444 3.444 0 0 0-1.154-.707 3.313 3.313 0 0 0-1.024-.178h-.18a3.276 3.276 0 0 0-1.668.505 3.976 3.976 0 0 0-.727.621 3.22 3.22 0 0 0-.64 1.153 2.894 2.894 0 0 0-.156 1.009m3.2-4.976h.161a5.02 5.02 0 0 1 2.983 1.052 4.876 4.876 0 0 1 .921.951 4.94 4.94 0 0 1 .99 2.978 5 5 0 0 1-1.425 3.493 5.112 5.112 0 0 1-3.464 1.474h-.162a4.961 4.961 0 0 1-2.989-1.058 4.778 4.778 0 0 1-.834-.844 4.893 4.893 0 0 1-1.066-3.074 4.964 4.964 0 0 1 1.28-3.328 4.612 4.612 0 0 1 .95-.815 4.9 4.9 0 0 1 2.659-.824m7.767 4.963v.076a3.281 3.281 0 0 0 3.22 3.22h.126a3.275 3.275 0 0 0 3.221-3.22v-.077a3.23 3.23 0 0 0-.967-2.315 3.087 3.087 0 0 0-1.234-.767 3 3 0 0 0-1-.185h-.166a3.276 3.276 0 0 0-3.2 3.27M29.182.849h.079a.817.817 0 0 1 .688.431 1.113 1.113 0 0 1 .117.58v3.431c0 .148.1.264.311.348.064.008.1.009.106.009a2.369 2.369 0 0 0 .69-.33 5.08 5.08 0 0 1 2.114-.494h.165a4.942 4.942 0 0 1 2.619.8 4.88 4.88 0 0 1 1.977 2.56 4.968 4.968 0 0 1 .262 1.572v.058a4.952 4.952 0 0 1-1.222 3.229 4.827 4.827 0 0 1-.9.8 4.883 4.883 0 0 1-2.824.893 5.06 5.06 0 0 1-2.735-.8.357.357 0 0 0-.192-.058h-.031c-.208 0-.365.158-.475.475a.84.84 0 0 1-1.445-.048 1.1 1.1 0 0 1-.1-.369V1.643a.839.839 0 0 1 .475-.717 1 1 0 0 1 .319-.079m10.886 3.978h.136a.808.808 0 0 1 .611.33.841.841 0 0 1 .154.457v8.332a.832.832 0 0 1-.494.737.961.961 0 0 1-.3.068h-.079a.816.816 0 0 1-.688-.427 1.113 1.113 0 0 1-.115-.574V5.824a.9.9 0 0 1 .4-.874.667.667 0 0 1 .378-.125m.04-3.346h.057a1.006 1.006 0 0 1 .9.57.926.926 0 0 1 .106.437v.1a1.011 1.011 0 0 1-.592.893 1.08 1.08 0 0 1-.446.1 1.019 1.019 0 0 1-.969-.66.891.891 0 0 1-.069-.331v-.092a1 1 0 0 1 .7-.958.942.942 0 0 1 .311-.059m6.437 3.336a4.907 4.907 0 0 1 2.833.883.848.848 0 0 1 .289.659.808.808 0 0 1-.437.707.96.96 0 0 1-.388.108 1.35 1.35 0 0 1-.717-.281 3.259 3.259 0 0 0-1.592-.4h-.058a3.275 3.275 0 0 0-1.572.446 3.358 3.358 0 0 0-1.465 1.786 3.413 3.413 0 0 0-.175 1.066 3.293 3.293 0 0 0 1.067 2.416 3.412 3.412 0 0 0 1.32.738 3.224 3.224 0 0 0 .824.125h.078a3.329 3.329 0 0 0 1.853-.562.93.93 0 0 1 .436-.115.873.873 0 0 1 .689.377.911.911 0 0 1 .135.457.877.877 0 0 1-.533.8 4.984 4.984 0 0 1-5.635-.33 5.324 5.324 0 0 1-.7-.68 4.005 4.005 0 0 1-.563-.794 4.9 4.9 0 0 1-.65-2.445 4.983 4.983 0 0 1 1.01-3 6.231 6.231 0 0 1 .649-.707 5.275 5.275 0 0 1 1.01-.7 5.036 5.036 0 0 1 2.289-.563m4.944 0a.929.929 0 0 1 .661.331.451.451 0 0 0 .232.068h.029a1.5 1.5 0 0 0 .455-.165 3.675 3.675 0 0 1 1.262-.234 3.545 3.545 0 0 1 2.268.843 2.033 2.033 0 0 1 .175.185c-.634.646-.965.97-.988.97a.4.4 0 0 1-.215.069.912.912 0 0 1-.437-.195 1.822 1.822 0 0 0-.833-.195 1.777 1.777 0 0 0-1.31.59 1.816 1.816 0 0 0-.475 1.243v5.46a.866.866 0 0 1-.3.758.743.743 0 0 1-.5.2h-.087a.821.821 0 0 1-.746-.563 1.174 1.174 0 0 1-.049-.4V5.776a.853.853 0 0 1 .282-.727.794.794 0 0 1 .571-.234m6.624 4.948c0 .452.054.72.165.8a.443.443 0 0 0 .311.118 1.258 1.258 0 0 0 .543-.331q.047-.018 3.909-2.776a.414.414 0 0 0 .145-.309v-.054a.384.384 0 0 0-.194-.311 3.241 3.241 0 0 0-1.485-.407h-.194a3.259 3.259 0 0 0-3.2 3.269m3.288-4.957a4.98 4.98 0 0 1 3.627 1.562 1.766 1.766 0 0 1 .562.93.438.438 0 0 0 .011.108.864.864 0 0 1-.281.6q-.156.125-4.813 3.434c0 .006-.261.2-.787.572a.426.426 0 0 0-.115.271v.059a.388.388 0 0 0 .2.32 3.321 3.321 0 0 0 1.485.4h.195a3.238 3.238 0 0 0 2.755-1.629 3.46 3.46 0 0 0 .32-.727 1.356 1.356 0 0 1 .272-.661.886.886 0 0 1 .59-.261.808.808 0 0 1 .806.552.684.684 0 0 1 .048.263v.028a4.126 4.126 0 0 1-.351 1.231 5.347 5.347 0 0 1-.67 1.067 5.4 5.4 0 0 1-.853.815 4.818 4.818 0 0 1-1.116.63 4.749 4.749 0 0 1-1.786.378h-.153a5.005 5.005 0 0 1-2.891-.961 5.207 5.207 0 0 1-1.1-1.115 6.453 6.453 0 0 1-.506-.874 5.338 5.338 0 0 1-.425-2A5.048 5.048 0 0 1 57.6 6.548a5.5 5.5 0 0 1 .8-.746 4.974 4.974 0 0 1 2.989-1" fill="#fff" fill-rule="evenodd"/><g data-name="Group 1"><path data-name="Path 5" d="M68.034 9.724v.106a3.258 3.258 0 0 0 3.191 3.23h.175a3.212 3.212 0 0 0 2.074-.8 3.327 3.327 0 0 0 .6-.687 3.27 3.27 0 0 0 .524-1.738v-.111a3.268 3.268 0 0 0-3.196-3.226h-.175a3.251 3.251 0 0 0-2.076.8 3.363 3.363 0 0 0-1.117 2.426M75.417.828h.068a.837.837 0 0 1 .738.505 1.046 1.046 0 0 1 .068.3v12.311a.814.814 0 0 1-.534.746 1.053 1.053 0 0 1-.322.058.824.824 0 0 1-.764-.533.432.432 0 0 0-.407-.331h-.019a.637.637 0 0 0-.331.127 4.848 4.848 0 0 1-2.512.737h-.146a4.948 4.948 0 0 1-2.842-.93 4.84 4.84 0 0 1-1.174-1.2 4.981 4.981 0 0 1 .031-5.733 4.649 4.649 0 0 1 1.25-1.2 4.743 4.743 0 0 1 1.474-.7 5.61 5.61 0 0 1 1.359-.175 5.052 5.052 0 0 1 2.668.8.6.6 0 0 0 .165.038.424.424 0 0 0 .407-.31 1.16 1.16 0 0 0 .01-.117V1.828a.92.92 0 0 1 .513-.93.969.969 0 0 1 .3-.067" fill="#fefefe" fill-rule="evenodd"/></g><path data-name="Path 6" d="M2.024 6.049a.644.644 0 0 1-.541-.99 5.757 5.757 0 0 1 8.369-1.515.643.643 0 1 1-.768 1.031 4.476 4.476 0 0 0-6.524 1.18.64.64 0 0 1-.539.294" fill="#bad1e7" fill-rule="evenodd"/><path data-name="Path 7" d="M.641 4.354a.643.643 0 0 1-.542-.99 7.185 7.185 0 0 1 10.447-1.891.643.643 0 0 1-.766 1.032 5.9 5.9 0 0 0-8.601 1.556.638.638 0 0 1-.54.294" fill="#bad1e7" fill-rule="evenodd"/><path data-name="Path 8" d="M15.149 5.851a4.517 4.517 0 0 0-1.017-.67q-.141-.058-.281-.121l-.092-.031a4.146 4.146 0 0 0-1.236-.2 3.99 3.99 0 0 0-1.487.292c-.017.007-.034.012-.052.022-.061.025-.118.054-.178.083s-.121.06-.18.092c-.019.011-.037.023-.055.032a4.517 4.517 0 0 0-.45.3 3.208 3.208 0 0 1-.308.264.5.5 0 0 1-.28.131h-.038a.5.5 0 0 1-.281-.131 3.277 3.277 0 0 1-.308-.264 4.618 4.618 0 0 0-.449-.3l-.058-.032c-.058-.033-.119-.062-.178-.092s-.119-.058-.179-.083a.332.332 0 0 0-.052-.022 3.984 3.984 0 0 0-1.488-.292 4.146 4.146 0 0 0-1.236.2l-.092.032c-.108.048-.2.088-.281.121a4.458 4.458 0 0 0-1.016.67A3.924 3.924 0 0 0 3.1 6.87a3.513 3.513 0 0 0-.427 1.466v5.3a1.246 1.246 0 0 0 .1.551 1.2 1.2 0 0 0 .21.243 1.221 1.221 0 0 0 .208.127.8.8 0 0 0 .288.066h.03a.961.961 0 0 0 .322-.075c.026-.011.049-.024.073-.036a.976.976 0 0 0 .344-.392 1.25 1.25 0 0 0 .077-.484v-5.31a1.9 1.9 0 0 1 .349-.882c.031-.044.065-.089.1-.135a2.267 2.267 0 0 1 .933-.693l.038-.018c.056-.018.114-.036.172-.051.026-.008.054-.018.081-.023.046-.011.092-.018.138-.025s.077-.015.12-.021.105-.005.158-.008c.032 0 .063-.006.1-.006h.009a2.131 2.131 0 0 1 .244.014.415.415 0 0 1 .068.012c.054.008.108.014.161.027s.133.034.2.055h.015a2.36 2.36 0 0 1 1.084.783 1.967 1.967 0 0 1 .388.941v5.336a1.223 1.223 0 0 0 .107.534 1.046 1.046 0 0 0 .221.273.924.924 0 0 0 .177.1 1.154 1.154 0 0 0 .307.075h.048a1.1 1.1 0 0 0 .3-.075.915.915 0 0 0 .178-.1 1.03 1.03 0 0 0 .221-.273 1.223 1.223 0 0 0 .108-.534V8.296a1.967 1.967 0 0 1 .388-.941 2.347 2.347 0 0 1 1.086-.781 2.129 2.129 0 0 1 .213-.059c.054-.013.108-.019.161-.027a.428.428 0 0 1 .069-.012 2.145 2.145 0 0 1 .245-.014h.009c.032 0 .063 0 .1.006.052 0 .107 0 .158.008l.12.021c.039.007.094.014.136.024s.057.015.084.023c.058.015.115.033.171.052l.038.018a2.278 2.278 0 0 1 .933.693l.1.135a1.88 1.88 0 0 1 .348.882v5.307a1.271 1.271 0 0 0 .078.484.979.979 0 0 0 .344.391.956.956 0 0 0 .4.111h.029a.8.8 0 0 0 .288-.066.915.915 0 0 0 .417-.37 1.244 1.244 0 0 0 .1-.551v-5.3a3.507 3.507 0 0 0-.426-1.465 3.956 3.956 0 0 0-.777-1.018" fill="#fff" fill-rule="evenodd"/></svg>