<svg width="39" height="30" xmlns="http://www.w3.org/2000/svg"><g fill-rule="nonzero" fill="none"><path d="M7.141 29.707V27.75c0-.75-.456-1.24-1.239-1.24-.391 0-.815.131-1.109.555-.228-.358-.554-.554-1.043-.554-.326 0-.652.098-.913.456v-.39h-.685v3.13h.685v-1.729c0-.554.293-.815.75-.815.456 0 .685.294.685.815v1.729h.685v-1.729c0-.554.326-.815.75-.815.456 0 .684.294.684.815v1.729h.75zm10.142-3.13h-1.11v-.947h-.684v.946h-.62v.62h.62v1.434c0 .718.294 1.142 1.076 1.142.294 0 .62-.098.848-.229l-.196-.586c-.195.13-.424.163-.587.163-.326 0-.456-.196-.456-.522v-1.402h1.109v-.62zm5.804-.066a.92.92 0 0 0-.815.456v-.39h-.685v3.13h.685v-1.761c0-.522.228-.816.652-.816.13 0 .293.033.424.066l.195-.653c-.13-.032-.326-.032-.456-.032zm-8.772.326c-.326-.228-.782-.326-1.272-.326-.782 0-1.304.391-1.304 1.01 0 .522.391.816 1.076.914l.326.032c.359.066.555.163.555.326 0 .229-.261.392-.718.392a1.8 1.8 0 0 1-1.043-.326l-.326.521c.358.261.848.392 1.337.392.913 0 1.434-.424 1.434-1.011 0-.554-.423-.848-1.076-.946l-.326-.032c-.293-.033-.521-.098-.521-.294 0-.228.228-.359.586-.359.392 0 .783.163.979.261l.293-.554zm18.196-.326a.92.92 0 0 0-.815.456v-.39h-.685v3.13h.685v-1.761c0-.522.228-.816.652-.816.13 0 .293.033.424.066l.195-.653c-.13-.032-.326-.032-.456-.032zm-8.74 1.63c0 .946.653 1.63 1.664 1.63.456 0 .782-.097 1.108-.358l-.326-.554c-.26.195-.521.293-.815.293-.554 0-.945-.391-.945-1.01 0-.588.39-.979.945-1.012.294 0 .555.098.815.294l.326-.554c-.326-.261-.652-.36-1.108-.36-1.011 0-1.663.686-1.663 1.631zm6.327 0v-1.565h-.685v.391c-.228-.293-.554-.456-.978-.456-.88 0-1.565.685-1.565 1.63 0 .946.684 1.63 1.565 1.63.456 0 .782-.162.978-.456v.392h.685V28.14zm-2.511 0c0-.554.359-1.01.946-1.01.554 0 .945.423.945 1.01 0 .555-.391 1.011-.945 1.011-.587-.032-.946-.456-.946-1.01zm-8.185-1.63c-.913 0-1.565.652-1.565 1.63 0 .979.652 1.63 1.598 1.63.456 0 .913-.13 1.272-.423l-.327-.49c-.26.196-.587.327-.913.327-.424 0-.847-.196-.945-.75h2.315v-.261c.033-1.011-.554-1.663-1.435-1.663zm0 .587c.424 0 .718.26.783.75h-1.63c.065-.424.358-.75.847-.75zm16.99 1.043v-2.804h-.685v1.63c-.229-.293-.555-.456-.979-.456-.88 0-1.565.685-1.565 1.63 0 .946.685 1.63 1.565 1.63.457 0 .783-.162.979-.456v.392h.684V28.14zm-2.512 0c0-.554.36-1.01.946-1.01.554 0 .946.423.946 1.01 0 .555-.392 1.011-.946 1.011-.587-.032-.946-.456-.946-1.01zm-22.89 0v-1.565h-.686v.391c-.228-.293-.554-.456-.978-.456-.88 0-1.565.685-1.565 1.63 0 .946.685 1.63 1.565 1.63.457 0 .783-.162.978-.456v.392h.685V28.14zm-2.544 0c0-.554.358-1.01.945-1.01.555 0 .946.423.946 1.01 0 .555-.391 1.011-.946 1.011-.587-.032-.945-.456-.945-1.01zM14.087 2.804h10.272v18.457H14.087z" fill="#FFF"/><path d="M14.74 12.033c0-3.75 1.76-7.076 4.467-9.229a11.667 11.667 0 0 0-7.24-2.51C5.478.293.228 5.543.228 12.032c0 6.489 5.25 11.739 11.74 11.739 2.739 0 5.25-.946 7.239-2.511a11.722 11.722 0 0 1-4.468-9.228zM38.217 12.033c0 6.489-5.25 11.739-11.739 11.739-2.739 0-5.25-.946-7.239-2.511a11.672 11.672 0 0 0 4.468-9.228c0-3.75-1.761-7.076-4.468-9.229 1.99-1.565 4.5-2.51 7.24-2.51 6.488 0 11.738 5.282 11.738 11.739z" fill="#BAD1E7"/></g></svg>