<svg xmlns="http://www.w3.org/2000/svg" width="81.506" height="22.596" viewBox="0 0 81.506 22.596"><g data-name="Group 1" fill="#fff" fill-rule="evenodd"><path d="M56.893 14.335a3.442 3.442 0 1 1 3.447-3.441 3.442 3.442 0 0 1-3.447 3.441zm0-9.493a6.052 6.052 0 1 0 6.047 6.052 6.053 6.053 0 0 0-6.047-6.052zM32.683 14.335a3.442 3.442 0 1 1 3.448-3.441 3.442 3.442 0 0 1-3.448 3.441zm0-9.493a6.052 6.052 0 1 0 6.048 6.052 6.053 6.053 0 0 0-6.048-6.052zM50.033 16.949H39.542V15l6.347-6.905h-5.131a1.19 1.19 0 0 1-1.216-1.163V5.649h10.491v1.992l-6.63 6.861h5.415a1.19 1.19 0 0 1 1.216 1.162v1.285M77.663 16.949h-2.754l-2.268-6.643-2.289 6.643h-2.758l-3.842-11.3h1.861a1.606 1.606 0 0 1 1.531 1.089l1.932 5.848 2.361-6.937h2.384l2.361 6.96 1.933-5.87a1.605 1.605 0 0 1 1.531-1.09h1.86l-3.843 11.3M21.752 11.29a.972.972 0 0 1-1.076-.868 9.659 9.659 0 0 0-4.834-7.281A9 9 0 0 0 4.877 4.856a.939.939 0 0 1-1.363.006 1.026 1.026 0 0 1-.006-1.414 10.878 10.878 0 0 1 13.247-2.07 11.663 11.663 0 0 1 5.834 8.794.993.993 0 0 1-.836 1.117"/><path d="M11.702 9.23a1.665 1.665 0 1 0 1.668 1.665 1.667 1.667 0 0 0-1.668-1.665zm0 5.3a3.631 3.631 0 1 1 3.631-3.631 3.635 3.635 0 0 1-3.631 3.631z"/><path d="M13.719 5.178a.961.961 0 0 1-.023.213.973.973 0 0 1-.945.789.873.873 0 0 1-.207-.023 5.372 5.372 0 0 0-1.131-.122 5.548 5.548 0 0 0-1.74.283 5.655 5.655 0 0 0-1.99 1.137c-.479.429-.948.932-1.4 1.418-.236.253-.469.5-.705.746l-3.419 3.522-1.2 1.235a.489.489 0 0 1-.833-.253q-.067-.351-.112-.708a1.652 1.652 0 0 1 .453-1.355l1.68-1.732 2.06-2.121c.226-.233.45-.473.673-.712.485-.523.983-1.059 1.53-1.548a7.58 7.58 0 0 1 2.667-1.532 7.305 7.305 0 0 1 3.875-.213.99.99 0 0 1 .766.976M11.302 22.596a11.135 11.135 0 0 1-9.557-5.547.981.981 0 0 1 .15-1.177l2.819-2.867a.944.944 0 0 1 .867-.265.96.96 0 0 1 .7.591 5.366 5.366 0 0 0 9.629.841 5.562 5.562 0 0 0 .8-2.977 5.218 5.218 0 0 0-.042-.592 5.533 5.533 0 0 0-1.62-3.278.985.985 0 0 1-.034-1.376.944.944 0 0 1 1.351-.03 7.5 7.5 0 0 1 2.198 4.43 7.286 7.286 0 0 1 .058.935 7.472 7.472 0 0 1-1.5 4.514 7.244 7.244 0 0 1-11.976-.479l-1.351 1.375a9.1 9.1 0 0 0 14.681.45.944.944 0 0 1 1.343-.147.984.984 0 0 1 .145 1.367 11.007 11.007 0 0 1-8.662 4.231"/></g></svg>