<svg width="55" height="20" xmlns="http://www.w3.org/2000/svg"><g fill="#FFF" fill-rule="nonzero"><path d="M6.595 5.129l-.982-2.667-.977 2.667h1.96zM28.23 4.067c-.197.134-.43.138-.71.138h-1.743V2.72h1.767c.25 0 .511.011.68.12.186.098.301.305.301.591 0 .292-.11.528-.295.636zm12.435 1.062l-.992-2.667-.987 2.667h1.98zm-23.18 2.886h-1.47l-.006-5.24-2.08 5.24h-1.26l-2.086-5.244v5.244H7.664l-.551-1.492H4.126l-.558 1.492H2.01l2.57-6.69h2.132l2.44 6.334V1.326h2.341l1.878 4.538 1.725-4.538h2.39v6.689zm5.863 0h-4.793v-6.69h4.794V2.72H19.99v1.205h3.278v1.372H19.99V6.63h3.359v1.384zm6.759-4.887c0 1.065-.64 1.618-1.012 1.782.315.134.583.37.71.565.203.331.238.63.238 1.226v1.314h-1.447l-.006-.843c0-.403.035-.983-.226-1.304-.21-.235-.53-.286-1.046-.286h-1.54v2.433h-1.436v-6.69h3.301c.734 0 1.274.022 1.737.321.455.3.727.735.727 1.482zm2.296 4.887H30.94V1.326h1.464v6.689zm16.985 0h-2.034l-2.72-5.02v5.02h-2.922l-.558-1.492h-2.98l-.543 1.492h-1.679c-.697 0-1.58-.172-2.08-.74-.505-.568-.767-1.337-.767-2.554 0-.99.156-1.9.774-2.614.464-.535 1.19-.781 2.18-.781h1.388v1.433h-1.36c-.523 0-.819.087-1.104.397-.244.282-.413.814-.413 1.515 0 .716.129 1.233.396 1.57.22.265.621.346 1 .346h.643l2.023-5.26h2.15l2.43 6.327V1.327h2.184l2.522 4.658V1.327h1.47v6.688zM1.994 9.329h2.451l.553-1.486h1.237l.551 1.486h4.824V8.193l.431 1.14h2.504l.43-1.157V9.33h11.988l-.006-2.44h.232c.163.007.21.024.21.323v2.117h6.2v-.568c.5.3 1.278.568 2.302.568h2.608l.559-1.486h1.237l.546 1.486h5.026V7.917l.762 1.412h4.028V0H46.68v1.102L46.122 0h-4.09v1.102L41.518 0h-5.525c-.924 0-1.737.144-2.394.545V0h-3.813v.545C29.369.132 28.8 0 28.167 0h-13.93l-.935 2.41-.96-2.41H7.954v1.102L7.472 0H3.731L1.993 4.436 0 9.329h1.994zM54.203 14.947v-4.28h-3.625c-.808 0-1.396.213-1.811.545v-.545h-3.963c-.633 0-1.377.172-1.728.545v-.545h-7.077v.545c-.562-.448-1.513-.545-1.951-.545H29.38v.545c-.445-.476-1.435-.545-2.04-.545h-5.223l-1.195 1.427-1.12-1.427H12v9.328h7.655l1.232-1.45 1.16 1.45 4.72.005v-2.195h.463c.626.01 1.364-.017 2.015-.328v2.517h3.893v-2.432h.188c.24 0 .263.012.263.276v2.156h11.824c.75 0 1.536-.213 1.97-.597v.597h3.75c.781 0 1.544-.12 2.123-.43v-.01c.847-.595 1.41-1.639 1.41-2.83a3.572 3.572 0 0 0-.463-1.777zm-26.909 1.492h-1.806v2.243h-2.813l-1.782-2.214-1.852 2.214h-5.734v-6.686h5.822l1.78 2.191 1.842-2.191h4.625c1.148 0 2.439.351 2.439 2.202 0 1.858-1.256 2.241-2.52 2.241zm8.711-.303c.205.326.234.63.24 1.22v1.326h-1.452v-.837c0-.402.034-.997-.235-1.309-.212-.239-.533-.297-1.062-.297H31.95v2.443h-1.454v-6.686h3.342c.733 0 1.266.035 1.742.315.457.305.744.722.744 1.485 0 1.067-.645 1.612-1.026 1.779.32.13.585.366.708.56zm5.95-2.757h-3.39v1.216h3.308v1.364h-3.307v1.33l3.39.007v1.387h-4.831v-6.687h4.83v1.383zm3.687 5.303h-2.82v-1.434h2.81c.274 0 .468-.04.59-.166a.624.624 0 0 0 .172-.435.602.602 0 0 0-.177-.443c-.112-.102-.263-.148-.516-.148-1.353-.05-3.049.046-3.049-2.07 0-.97.552-1.99 2.07-1.99h2.902v1.423h-2.655c-.263 0-.435.011-.58.12-.159.109-.218.269-.218.482 0 .252.135.423.317.498.153.058.316.075.563.075l.78.025c.785.02 1.325.17 1.653.537.282.321.432.727.432 1.415 0 1.44-.814 2.111-2.274 2.111zm7.45-.645c-.382.425-.997.645-1.799.645h-2.796v-1.434h2.784c.277 0 .47-.04.587-.166.1-.102.17-.253.17-.435 0-.195-.07-.35-.176-.443-.105-.102-.258-.148-.51-.148-1.36-.05-3.055.046-3.055-2.07 0-.97.557-1.99 2.077-1.99h2.828v1.423h-2.583c-.262 0-.438.011-.585.12-.153.109-.212.27-.212.481 0 .253.129.424.317.498.153.06.317.076.557.076l.785.024c.791.021 1.32.171 1.641.538.059.05.095.108.136.165a5.557 5.557 0 0 0-.05-.07c.25.367.401.822.401 1.316 0 .567-.198 1.081-.517 1.47zm-34.714-4.658l1.583 1.948-1.653 1.962h-3.56v-1.33h3.178v-1.365h-3.178V13.38h3.63zm3.447 1.971l2.223-2.636v5.36l-2.223-2.724zm6.437-1.151c0 .58-.347.882-.903.882h-1.87V13.38h1.888c.521 0 .885.235.885.82zm6.46-.098c0 .286-.112.517-.3.642-.194.126-.433.137-.715.137h-1.759v-1.5h1.783c.258 0 .516.005.69.12.19.108.3.315.3.601z"/></g></svg>