<svg xmlns="http://www.w3.org/2000/svg" xmlns:xlink="http://www.w3.org/1999/xlink" version="1.1" width="256" height="256" viewBox="0 0 256 256" xml:space="preserve">
<desc>Created with Fabric.js 1.7.22</desc>
<defs>
</defs>
<g transform="translate(128 128) scale(0.72 0.72)" style="">
	<g style="stroke: none; stroke-width: 0; stroke-dasharray: none; stroke-linecap: butt; stroke-linejoin: miter; stroke-miterlimit: 10; fill: none; fill-rule: nonzero; opacity: 1;" transform="translate(-175.05 -175.05000000000004) scale(3.89 3.89)" >
	<path d="M 68.162 10.398 H 21.838 c -5.38 0 -9.742 4.362 -9.742 9.742 v 3.065 h 65.808 V 20.14 C 77.904 14.76 73.542 10.398 68.162 10.398 z" style="stroke: none; stroke-width: 1; stroke-dasharray: none; stroke-linecap: butt; stroke-linejoin: miter; stroke-miterlimit: 10; fill: rgb(128,128,128); fill-rule: nonzero; opacity: 1;" transform=" matrix(1 0 0 1 0 0) " stroke-linecap="round" />
	<path d="M 57.628 14.469 H 32.373 c -1.104 0 -2 -0.896 -2 -2 C 30.373 5.593 35.966 0 42.841 0 h 4.318 c 6.875 0 12.469 5.593 12.469 12.469 C 59.628 13.573 58.732 14.469 57.628 14.469 z M 34.611 10.469 H 55.39 C 54.488 6.761 51.141 4 47.159 4 h -4.318 C 38.86 4 35.512 6.761 34.611 10.469 z" style="stroke: none; stroke-width: 1; stroke-dasharray: none; stroke-linecap: butt; stroke-linejoin: miter; stroke-miterlimit: 10; fill: rgb(128,128,128); fill-rule: nonzero; opacity: 1;" transform=" matrix(1 0 0 1 0 0) " stroke-linecap="round" />
	<path d="M 16.154 27.346 l 3.555 60.704 C 19.773 89.145 20.679 90 21.776 90 h 46.449 c 1.097 0 2.003 -0.855 2.068 -1.949 l 3.554 -60.704 H 16.154 z" style="stroke: none; stroke-width: 1; stroke-dasharray: none; stroke-linecap: butt; stroke-linejoin: miter; stroke-miterlimit: 10; fill: rgb(128,128,128); fill-rule: nonzero; opacity: 1;" transform=" matrix(1 0 0 1 0 0) " stroke-linecap="round" />
</g>
</g>
</svg>